<svg version="1.1" xmlns="http://www.w3.org/2000/svg" style="display: block;" viewBox="0 0 2048 2048" width="512" height="512">
<path transform="translate(0,0)" fill="rgb(0,0,0)" d="M 0 0 L 2048 0 L 2048 753.147 L 2048 765.954 L 2048 1695.93 L 2048 1964.7 L 2048 2048 L 0 2048 L 0 1965.59 L 0 1697.92 L 0 0 z M 0 0 L 0 1697.92 C 6.38519 1689.15 8.03404 1679.04 16.1551 1670.72 C 23.9305 1662.75 33.8983 1657.95 44.7055 1655.69 C 60.2874 1652.43 77.7729 1654.29 93.6606 1654.36 C 127.505 1654.51 161.52 1655.37 195.353 1654.53 L 195.23 1585.45 C 195.214 1571.71 194.411 1557.3 196.052 1543.66 C 199.785 1512.62 212.173 1513.44 231.15 1496.57 C 234.935 1493.21 234.01 1490.11 234.041 1485.44 L 233.967 1023.11 L 233.953 888.482 C 233.934 863.74 232.991 838.773 234.237 814.068 C 212.575 816.712 182.409 814.818 159.912 814.844 L 95.502 814.884 C 78.4063 814.879 60.4696 816.103 43.6877 812.334 C 30.2961 809.327 16.6412 800.639 9.51009 788.83 C 2.10542 776.568 0.504177 759.8 4.3464 746.111 C 7.65725 734.314 14.924 724.841 24.3964 717.301 C 51.1329 696.018 81.2606 677.274 109.594 658.133 C 135.653 640.529 161.066 621.864 186.988 604.026 L 533.232 367.07 L 860.592 142.854 A 6482.45 6482.45 0 0 0 934.727 91.9077 C 956.111 76.8908 978.106 60.2955 1001.16 47.9644 C 1012.25 42.0327 1024.95 40.6278 1036.99 44.438 C 1052.2 49.2494 1075.45 68.1253 1089.43 77.466 L 1185.98 142.289 A 32365.6 32365.6 0 0 1 1580.4 411.551 L 1884.52 620.358 L 1972.41 681.059 C 1990.03 693.016 2009.08 704.296 2025.77 717.435 C 2039.4 728.169 2039.74 737.723 2047.06 751.438 C 2047.36 752.012 2047.69 752.578 2048 753.147 L 2048 0 L 0 0 z M 1021.52 167.765 A 11000.4 11000.4 0 0 1 839.59 292.969 L 478.382 540.747 C 432.716 572.028 387.589 604.314 341.661 635.16 C 318.808 650.507 295.753 665.524 273.22 681.343 C 263.988 687.824 253.893 694.295 245.433 701.754 C 275.157 700.213 305.321 701.333 335.103 701.359 L 493.532 701.286 L 1024.75 701.156 L 1532.34 701.437 L 1705.6 701.116 C 1737.25 701.096 1769.28 699.872 1800.85 701.833 C 1784.23 688.713 1766.5 676.922 1749.16 664.78 A 4913.11 4913.11 0 0 0 1674.07 612.223 L 1454.34 461.133 L 1176.53 271.082 L 1076.03 202.717 C 1059.97 191.821 1044.19 180.29 1027.77 169.955 C 1025.7 168.653 1024.06 167.627 1021.52 167.765 z M 113.803 1767.92 L 114.18 1896.9 C 151.174 1895.95 188.3 1896.66 225.309 1896.7 L 416.496 1896.68 L 1079.35 1896.42 L 1653.38 1896.88 L 1833.63 1896.75 C 1866.93 1896.69 1900.47 1895.74 1933.73 1896.95 C 1932.24 1875.32 1933.86 1853.02 1933.87 1831.31 C 1933.88 1810.49 1931.96 1788.26 1934.24 1767.65 C 1836.56 1769.1 1738.8 1767.72 1641.11 1767.93 L 853.143 1767.97 L 347.213 1768.15 L 182.499 1768.27 C 159.645 1768.2 136.637 1768.81 113.803 1767.92 z M 1380.19 814.49 L 1256.03 814.927 C 1238.04 814.968 1216.84 816.983 1199.3 814.53 C 1200.71 847.354 1199.35 880.647 1199.36 913.536 L 1199.1 1138.4 A 20295.9 20295.9 0 0 1 1199.26 1371.88 C 1199.36 1413.3 1201.62 1455.48 1199.54 1496.8 C 1214.58 1501.79 1229.71 1509.47 1236.72 1524.71 C 1244.41 1541.42 1240.91 1632.74 1240.69 1656.69 A 1581.18 1581.18 0 0 1 1280.76 1656.37 L 1371.78 1656.23 C 1387.82 1656.21 1404.73 1655.24 1420.7 1656.8 C 1419.83 1632.41 1420.66 1607.76 1420.77 1583.34 C 1420.84 1567.55 1418.99 1549.74 1422.13 1534.28 C 1423.94 1525.34 1427.85 1517.28 1434.16 1510.65 C 1441.67 1502.76 1450.81 1498.82 1461.22 1496.54 L 1461.08 1040.2 L 1461.08 894.637 C 1461.05 867.954 1459.93 840.776 1461.26 814.151 A 3618.46 3618.46 0 0 1 1380.19 814.49 z M 588.069 813.441 L 588.009 1496.22 C 602.164 1502 614.875 1508.38 621.414 1523.23 A 64.6045 64.6045 0 0 1 626.278 1541.76 C 627.908 1556.44 626.958 1572.09 626.968 1586.87 C 626.983 1609.93 627.384 1633.05 626.831 1656.1 L 807.39 1655.31 A 985.354 985.354 0 0 0 807.76 1615.25 C 807.788 1594.37 805.145 1550.13 809.681 1532.36 C 811.756 1524.23 815.708 1516.94 821.574 1510.93 C 828.202 1504.13 836.186 1499.62 845.384 1497.47 C 846.327 1497.25 847.264 1497 848.205 1496.78 A 11704.2 11704.2 0 0 0 848.731 1303.75 L 848.838 1008.32 C 848.792 943.889 847.024 879.044 848.795 814.665 L 674.576 814.388 L 625.288 814.611 C 613.33 814.673 601.174 815.372 589.325 813.604 C 588.908 813.542 588.488 813.496 588.069 813.441 z M 2048 765.954 C 2045.08 770.993 2043.74 776.443 2041.32 781.687 C 2033.88 797.811 2020.67 808.156 2003.55 812.352 C 1998.87 813.498 1994.05 813.894 1989.25 814.073 C 1951.72 815.477 1913.71 814.019 1876.13 813.934 C 1859.41 813.896 1831.07 816.109 1816.07 813.115 L 1814.33 814.463 C 1812.88 898.546 1814.1 982.825 1814.13 1066.93 L 1814.2 1490.45 C 1828.97 1497.23 1840.74 1506.57 1846.73 1522.35 A 59.9215 59.9215 0 0 1 1850.31 1538.65 C 1851.72 1555.2 1850.62 1572.4 1850.58 1589.04 C 1850.53 1610.76 1851.25 1632.54 1850.73 1654.26 C 1879.06 1652.26 1908.24 1653.63 1936.66 1653.65 C 1957.34 1653.66 1984.75 1651.29 2004.62 1655.25 C 2013.49 1657.02 2020.84 1660.53 2027.69 1666.46 C 2037.58 1675.03 2041.02 1685.49 2048 1695.93 L 2048 765.954 z M 961.794 813.676 L 961.204 1286.63 L 961.312 1427.81 C 961.354 1450.61 962.791 1474.02 961.532 1496.73 C 990.318 1496.06 1019.18 1496.56 1047.98 1496.69 C 1060.02 1496.74 1073.94 1498.27 1085.72 1496.39 C 1084.42 1462.31 1086.03 1427.75 1086.06 1393.6 L 1086.73 1132.42 L 1086.04 913.783 L 1085.89 856.16 C 1085.76 842.141 1085.06 827.863 1086.1 813.883 C 1059.99 815.131 1033.54 814.44 1007.39 814.47 C 992.671 814.486 976.179 816.322 961.794 813.676 z M 349.076 813.51 C 349.923 854.835 348.891 896.442 348.934 937.797 L 349.113 1224.36 L 349.109 1408.94 L 349.211 1467.5 C 349.261 1477.37 349.953 1487.41 349.45 1497.25 C 361.389 1497.26 469.594 1498.33 471.216 1497.34 C 471.782 1497 472.156 1496.41 472.626 1495.95 L 472.646 1495.04 C 474.652 1334.69 473.637 1174.17 473.484 1013.81 L 473.284 888.5 C 473.207 863.808 472.611 839.046 473.22 814.366 A 2902.23 2902.23 0 0 1 396.365 814.667 C 380.759 814.595 364.546 815.414 349.076 813.51 z M 1576.03 814.629 L 1576.1 1263.73 L 1576.14 1417.78 C 1576.11 1442.89 1576.57 1468.12 1575.9 1493.21 C 1589.06 1493.3 1691.55 1495.8 1696.4 1492.83 L 1696.75 1491.88 L 1696.58 1051.17 C 1696.49 972.449 1695.44 893.582 1696.95 814.877 L 1617.1 815.106 C 1603.75 815.136 1589.2 816.426 1576.03 814.629 z M 0 1965.59 L 0 2048 L 2048 2048 L 2048 1964.7 C 2047.72 1965.17 2047.43 1965.64 2047.16 1966.11 C 2045.07 1969.7 2044.12 1973.85 2042.33 1977.59 C 2035.16 1992.61 2024.43 2002.82 2008.28 2007.39 C 1987.86 2013.15 1964.15 2010.73 1943.06 2010.65 L 1869.73 2010.5 L 1578.56 2010.46 L 531.591 2010.39 L 218.939 2010.4 L 116.928 2010.61 C 98.4375 2010.66 79.6126 2011.47 61.1586 2010.49 C 49.6554 2009.89 38.3316 2007.7 28.3042 2001.77 C 13.0271 1992.74 8.37401 1979.91 0 1965.59 z M 311.089 1605.53 C 311.135 1621.83 311.714 1638.42 310.776 1654.69 C 336.414 1653.17 362.508 1654.35 388.215 1654.27 A 7790.27 7790.27 0 0 1 514.437 1654.15 C 513.511 1638.23 513.139 1621.7 514.337 1605.79 C 469.358 1608.06 423.772 1606.6 378.728 1606.63 C 362.154 1606.65 325.499 1608.85 311.089 1605.53 z M 922.854 1606.7 C 921.9 1622.54 922.09 1639.02 922.523 1654.88 C 946.116 1651.99 971.977 1653.77 995.852 1653.76 C 1037.3 1653.72 1078.91 1653.2 1120.33 1654.21 L 1120.57 1607.76 C 1073.75 1607.19 1026.9 1607.79 980.073 1607.53 C 961.646 1607.42 940.98 1609.41 922.854 1606.7 z M 1536.44 1611.78 L 1536.05 1653.25 C 1600.41 1652.25 1665.47 1652.48 1729.81 1654.08 A 374.641 374.641 0 0 1 1729.8 1612.78 C 1704.94 1611.51 1679.91 1611.96 1655.02 1611.93 L 1536.44 1611.78 z"/>
<path transform="translate(0,0)" fill="rgb(0,0,0)" d="M 1008.33 286.301 A 171.457 171.457 0 0 1 1132.36 323.78 C 1167.93 352.842 1193 399.8 1197.31 445.482 C 1201.45 489.327 1186.45 535.887 1158.24 569.58 C 1129.63 603.757 1087.72 626.891 1043.25 630.941 C 999.431 635.822 956.019 622.241 920.552 596.658 C 885.795 571.586 859.828 533.789 853.261 491.014 C 845.599 441.115 854.791 394.287 885.174 353.599 C 916.281 311.943 958.212 293.619 1008.33 286.301 z M 1011.63 402.476 C 996.944 405.184 984.126 414.054 975.517 426.196 A 62.0587 62.0587 0 0 0 965.336 473.668 A 58.1768 58.1768 0 0 0 990.496 511.046 C 1004.15 519.934 1020.18 521.703 1036.03 519.634 C 1053.89 514.036 1068.61 504.663 1077.64 487.708 A 56.2113 56.2113 0 0 0 1081.62 443.418 A 60.6392 60.6392 0 0 0 1050.7 407.466 C 1037.8 401.043 1025.53 401.155 1011.63 402.476 z"/>
</svg>