<svg version="1.1" xmlns="http://www.w3.org/2000/svg" style="display: block;" viewBox="0 0 2048 2048" width="512" height="512">
<path transform="translate(0,0)" fill="rgb(0,0,0)" d="M 1025.03 358.125 C 1037.9 353.883 1050.31 347.595 1062.89 342.494 C 1079.17 335.888 1095.99 330.165 1112.65 324.569 C 1206.59 293.011 1310.74 273.647 1409.84 272.183 A 1079.58 1079.58 0 0 1 1705.88 306.777 C 1723.47 311.254 1741.62 315.508 1758.82 321.269 C 1774.92 326.662 1791.85 334.92 1808.52 337.773 C 1821.12 339.93 1834.34 338.973 1847.09 338.836 C 1904.97 338.213 1960.98 330.773 2006.04 374.994 C 2032.04 400.51 2040.14 434.019 2040.42 469.487 L 2040.74 1261.72 L 2040.74 1510.41 L 2040.83 1584.75 C 2040.84 1600.75 2041.62 1617.26 2039.6 1633.15 C 2036.54 1657.14 2025.99 1678.29 2008.96 1695.41 C 1992.79 1711.68 1972.67 1724.1 1950.03 1728.68 C 1930.86 1732.56 1910.47 1731.21 1890.99 1731.15 L 1814.22 1730.96 L 1501.25 1730.95 L 1329.99 1730.93 C 1302.3 1730.95 1261.24 1728.19 1234.69 1733.65 C 1214.81 1737.74 1195.77 1745.63 1177.01 1753.19 C 1132.7 1771.02 1090.59 1788.48 1042.1 1790.89 C 988.206 1793.58 937.769 1781.18 888.969 1759.05 C 864.889 1748.12 837.15 1734.63 810.579 1732.13 C 787.041 1729.92 762.663 1730.92 739.022 1730.94 L 622.336 1731.14 L 267.025 1731.14 L 170.232 1731.26 C 146.274 1731.26 119.698 1733.72 96.3214 1728.07 A 113.86 113.86 0 0 1 46.5188 1701.61 C 20.2148 1677.65 8.71805 1646.22 7.28881 1611.27 C 6.11611 1582.6 7.08604 1553.56 7.12471 1524.84 L 6.97609 1376.56 L 6.87647 876.213 L 7.18046 585.298 L 7.32797 497.26 C 7.36396 478.613 6.48851 459.367 8.89772 440.85 C 12.1572 415.798 23.3273 394.15 40.4064 375.729 A 113.019 113.019 0 0 1 95.3269 342.466 C 126.939 334.47 171.432 338.48 204.652 338.753 C 215.992 338.847 227.727 339.449 238.954 337.69 C 252.737 335.531 266.536 329.986 279.864 325.888 A 1625.71 1625.71 0 0 1 339.939 308.75 A 1013.97 1013.97 0 0 1 575.632 272.448 A 1067.42 1067.42 0 0 1 924.047 322.085 C 943.766 328.171 963.536 334.465 982.823 341.825 C 996.414 347.012 1009.98 353.749 1023.91 357.81 C 1024.28 357.918 1024.66 358.02 1025.03 358.125 z M 580.489 388.481 C 503.882 392.811 437.022 401.512 362.967 422.907 C 343.098 428.648 323.73 435.614 304.127 442.154 C 302.304 476.536 302.958 511.241 302.768 545.67 A 17173.7 17173.7 0 0 0 302.757 749.625 L 302.449 1198.68 C 302.616 1280.2 304.571 1361.9 303.692 1443.4 C 408.003 1415.41 512.361 1395.59 620.701 1397.07 C 648.436 1397.45 678.421 1398.68 705.755 1403.71 C 764.681 1411.16 821.85 1423.26 879.2 1438.56 C 908.771 1446.45 938.772 1454.61 967.078 1466.35 C 966.352 1413.61 967.345 1360.78 967.384 1308.03 L 967.6 956.194 L 967.328 583.841 C 967.278 542.01 965.904 500.005 966.308 458.213 C 851.16 412.941 704.364 384.183 580.489 388.481 z M 1430.59 388.485 A 999.305 999.305 0 0 0 1081.3 458.696 C 1080.23 504.068 1080.85 549.568 1080.81 594.957 L 1080.9 855.969 L 1080.81 1463.29 C 1161.99 1437.44 1231.52 1419.34 1316.56 1408.2 C 1336.64 1405.57 1357.52 1402.23 1377.75 1401.48 C 1403.49 1400.31 1429.5 1398.47 1455.26 1398.54 C 1545.23 1398.78 1658.33 1412.8 1743.44 1442.22 C 1745.01 1424.02 1744.13 1405.2 1744.17 1386.9 L 1744.16 1284.63 L 1744.08 971.438 L 1744.14 610.158 L 1744.16 498.678 C 1744.17 478.873 1745.12 458.369 1743.7 438.639 C 1714.34 427.665 1682.91 420.234 1652.3 413.662 C 1579.64 398.059 1505.04 388.097 1430.59 388.485 z M 121.542 458.063 C 118.755 468.451 120.509 526.99 120.619 543.229 L 121.215 712.773 L 121.136 1320.06 L 120.882 1514.5 C 120.884 1548.48 121.817 1582.66 121.002 1616.62 A 6752.79 6752.79 0 0 1 277.625 1616.25 L 567.224 1616.29 L 727.91 1616.09 C 760.253 1616.04 793.281 1614.63 825.507 1617.47 C 899.679 1624.01 948.652 1674.99 1023.29 1675.23 C 1064.94 1675.37 1090.32 1662.33 1126.89 1646.59 C 1159.29 1632.65 1192.78 1619.53 1228.27 1616.64 C 1259.19 1614.12 1290.93 1615.84 1321.97 1616.03 L 1461.78 1616.09 L 1926.72 1616.37 C 1928.24 1565.23 1927.88 1514.1 1927.94 1462.94 L 1928.17 1255.62 L 1928.34 640.766 L 1927.98 514.459 C 1927.85 495.932 1927 477.243 1927.32 458.732 A 1383.97 1383.97 0 0 1 1910.25 458.805 C 1892.54 458.924 1873.7 460.379 1856.14 458.743 L 1855.96 1157.09 L 1855.79 1360.36 L 1855.84 1422.4 C 1855.84 1438.27 1856.39 1454.44 1854.2 1470.19 A 110.366 110.366 0 0 1 1822.85 1532.19 C 1803.61 1551.12 1777.62 1563.35 1750.37 1562.82 C 1730.02 1562.43 1710.43 1555.49 1690.96 1550.23 A 985.884 985.884 0 0 0 1642.67 1538.43 A 892.171 892.171 0 0 0 1376.3 1520.48 C 1313.77 1526.19 1253.23 1536.47 1192.68 1553.36 C 1167.43 1560.41 1141.84 1568.53 1117.24 1577.57 C 1108.12 1580.92 1098.97 1584.24 1090.14 1588.29 C 1068.05 1598.4 1046.96 1611.26 1021.79 1610.68 C 993.508 1610.03 970.249 1593.82 944.845 1583.61 A 1011.03 1011.03 0 0 0 879.569 1560.2 A 959.515 959.515 0 0 0 645.078 1515.66 A 801.547 801.547 0 0 0 494.968 1521.08 C 454.664 1526.38 415.795 1534.87 376.236 1544.07 C 354.153 1549.21 331.28 1556.77 308.703 1558.68 A 105.715 105.715 0 0 1 269.451 1554.7 C 250.343 1549.02 232.517 1537.57 218.824 1523.14 C 204.725 1508.28 195.154 1489.6 192.601 1469.19 C 190.403 1451.63 191.139 1433.53 191.168 1415.85 L 191.315 1338.42 L 191.295 1087.04 L 190.847 638.151 L 190.386 528.371 C 190.147 505.9 189.179 483.271 189.995 460.818 L 190.071 458.91 C 170.033 459.303 140.725 460.991 121.542 458.063 z"/>
<path transform="translate(0,0)" fill="rgb(0,0,0)" d="M 1400.66 591.432 L 1401.67 591.366 C 1463.47 587.621 1528.44 594.655 1589.21 605.315 C 1611.61 609.244 1642.83 612.299 1660.13 628.162 A 56.1448 56.1448 0 0 1 1678.38 667.999 C 1678.72 683.324 1672.36 697.649 1661.64 708.404 C 1653.3 716.779 1642.82 722.177 1630.98 723.265 C 1612.33 724.979 1576.26 715.835 1555.91 713.129 C 1515.25 707.723 1474.79 704.166 1433.76 703.984 C 1390.3 704.293 1345.05 707.087 1302.08 713.718 C 1275.75 717.781 1246.4 725.912 1220.31 727.851 C 1204.4 729.034 1189.53 724.799 1177.44 714.1 A 56.5233 56.5233 0 0 1 1158.42 674.846 C 1157.51 659.636 1162.22 644.48 1172.66 633.186 A 53.8443 53.8443 0 0 1 1192.22 619.768 C 1206.23 614.104 1222.87 612.314 1237.7 609.59 C 1260.18 605.46 1282.71 601.082 1305.4 598.241 C 1337.1 594.272 1368.77 592.819 1400.66 591.432 z"/>
<path transform="translate(0,0)" fill="rgb(0,0,0)" d="M 1396.37 858.426 A 208.072 208.072 0 0 1 1398.66 858.352 C 1463.92 856.776 1528.35 862.942 1592.56 874.415 C 1609.06 877.364 1627.4 879.668 1642.96 886.057 A 55.1181 55.1181 0 0 1 1661.28 898.076 C 1672.43 909.076 1678.03 923.455 1678.03 938.992 C 1678.03 954.273 1672.49 968.776 1661.45 979.529 A 54.2415 54.2415 0 0 1 1627.55 994.526 C 1608.28 995.954 1562.34 983.857 1540.08 980.206 A 730.498 730.498 0 0 0 1440.71 971.711 C 1395.14 969.906 1333.82 975.016 1288.64 982.337 C 1266.85 985.868 1245.29 991.977 1223.39 994.599 C 1206.78 996.589 1191.78 994.537 1178.32 983.697 C 1166.09 973.843 1160 961.866 1158.48 946.284 A 58.4139 58.4139 0 0 1 1172.24 902.294 A 55.4452 55.4452 0 0 1 1193.62 886.921 C 1206.53 881.631 1221.47 879.859 1235.14 877.298 C 1289.02 867.205 1341.87 862.917 1396.37 858.426 z"/>
<path transform="translate(0,0)" fill="rgb(0,0,0)" d="M 1384.47 1124.46 A 1639.97 1639.97 0 0 1 1431.23 1123.98 A 899.697 899.697 0 0 1 1607.17 1140.81 C 1619.57 1143.24 1633.66 1145.06 1645.2 1150.32 C 1651.34 1153.12 1656.88 1157.61 1661.57 1162.44 C 1673.41 1174.63 1679.74 1189.86 1679.25 1206.93 C 1678.81 1222.52 1672.71 1236.25 1661.17 1246.84 C 1652.43 1254.85 1640.77 1260.3 1628.91 1261.05 C 1609.83 1262.26 1577.35 1252.36 1556.51 1249.44 C 1522.14 1244.63 1487.88 1242.56 1453.25 1241.08 C 1395.12 1238.88 1336.28 1244.37 1278.8 1252.77 C 1259.17 1255.64 1239.57 1261.86 1219.87 1263.42 C 1204.6 1264.63 1189.56 1260.09 1178.01 1249.84 C 1166.24 1239.38 1159.62 1224.92 1158.91 1209.19 C 1158.17 1192.86 1163.67 1177.02 1174.82 1164.99 A 56.1471 56.1471 0 0 1 1195.83 1150.57 C 1207.6 1145.94 1221.14 1144.22 1233.53 1141.83 A 942.301 942.301 0 0 1 1384.47 1124.46 z"/>
<path transform="translate(0,0)" fill="rgb(0,0,0)" d="M 604.525 591.438 A 388.08 388.08 0 0 1 632.979 591.121 A 1018.52 1018.52 0 0 1 807.983 609.122 C 822.609 611.797 838.642 613.65 852.527 619.004 A 60.9983 60.9983 0 0 1 874.862 634.054 C 884.773 644.678 889.679 658.561 889.047 673.041 C 888.36 688.782 881.137 703.188 869.466 713.626 C 860.255 721.864 848.847 726.882 836.476 727.746 C 811.812 729.467 785.562 719.783 761.164 716.138 A 1205.15 1205.15 0 0 0 660.239 706.32 A 955.517 955.517 0 0 0 496.973 714.047 C 486.452 715.449 475.869 716.9 465.456 718.979 C 455.315 721.004 445.383 723.912 435.032 724.722 C 419.426 725.943 404.978 722.095 392.982 711.625 A 57.4521 57.4521 0 0 1 373.3 671.625 C 372.432 655.989 377.217 640.09 387.989 628.498 A 52.159 52.159 0 0 1 407.197 615.367 C 421.359 609.646 437.419 607.698 452.415 605.185 C 503.323 596.655 553.034 593.331 604.525 591.438 z"/>
<path transform="translate(0,0)" fill="rgb(0,0,0)" d="M 587.845 858.416 A 879.057 879.057 0 0 1 625.838 857.836 C 687.208 857.871 748.6 865.775 808.912 876.767 C 823.368 879.402 839.626 881.339 853.289 886.919 C 860.098 889.7 865.829 893.727 870.962 898.95 C 882.26 910.446 888.725 925.717 888.119 941.911 C 887.56 956.854 880.363 971.946 869.04 981.641 A 55.7048 55.7048 0 0 1 835.885 994.92 C 813.142 996.307 783.223 987.308 760.101 983.488 A 851.495 851.495 0 0 0 674.752 973.517 C 618.677 968.351 555.056 973.292 499.473 982.127 C 479.687 985.272 459.865 990.797 440.088 993.26 C 422.979 995.391 406.828 991.415 393.337 980.527 A 56.0637 56.0637 0 0 1 372.311 941.161 A 58.1074 58.1074 0 0 1 385.813 897.905 A 51.8204 51.8204 0 0 1 405.01 883.79 C 416.35 878.878 429.726 877.222 441.829 875.001 C 490.26 866.111 538.805 862.182 587.845 858.416 z"/>
<path transform="translate(0,0)" fill="rgb(0,0,0)" d="M 606.731 1124.45 A 1373.46 1373.46 0 0 1 656.941 1124.52 A 1007.23 1007.23 0 0 1 809.123 1141.15 C 823.422 1143.71 838.965 1145.63 852.54 1150.95 A 58.184 58.184 0 0 1 874.381 1165.74 A 56.6007 56.6007 0 0 1 889.635 1207.44 C 888.698 1223.51 881.465 1239.21 869.261 1249.81 C 859.518 1258.26 847.5 1262.71 834.641 1263.25 C 813.711 1264.11 771.713 1252.47 748.981 1248.83 C 719.213 1244.05 689.281 1242.09 659.233 1240.02 A 880.81 880.81 0 0 0 505.875 1248.62 C 482.299 1252.16 458.534 1259.33 434.866 1261.23 A 59.4471 59.4471 0 0 1 391.073 1246.4 C 379.352 1236.08 372.973 1221.28 372.316 1205.79 C 371.625 1189.49 377.291 1174.66 388.412 1162.7 C 394.525 1156.13 400.61 1151.21 409.036 1147.83 C 425.399 1141.27 444.702 1139.51 462.068 1137.01 A 1142.48 1142.48 0 0 1 606.731 1124.45 z"/>
</svg>