<svg version="1.1" xmlns="http://www.w3.org/2000/svg" style="display: block;" viewBox="0 0 2048 2048" width="512" height="512">
<path transform="translate(0,0)" fill="rgb(0,0,0)" d="M 0 0 L 999.386 0 L 1050.01 0 L 2048 0 L 2048 1748.13 L 2048 1934.92 L 2048 2048 L 1923.79 2048 L 1753.17 2048 L 1376.92 2048 L 1210.94 2048 L 846.99 2048 L 675.07 2048 L 299.615 2048 L 123.17 2048 L 0 2048 L 0 1942.87 L 0 1745.16 L 0 0 z M 1050.01 0 C 1050.62 0.309435 1051.22 0.634939 1051.83 0.928304 C 1058.77 4.24339 1068.15 4.90612 1075.67 6.66278 C 1083.49 8.49165 1091.16 11.2779 1098.66 14.1347 A 219.863 219.863 0 0 1 1225.62 139.044 A 211.693 211.693 0 0 1 1222.42 303.838 C 1200.75 353.262 1157.86 394.769 1107.46 414.137 C 1100.46 416.827 1093.35 419.488 1086.11 421.458 L 1086.26 507.293 C 1086.32 521.873 1085.74 536.811 1086.8 551.347 A 13205.2 13205.2 0 0 1 1233.85 551.293 C 1266.26 551.384 1308.52 548.021 1339.33 555.6 A 152.737 152.737 0 0 1 1409.55 594.942 C 1439.39 624.028 1451.58 660.157 1451.94 701.142 L 1451.86 833.454 C 1451.88 866.808 1455.14 919.472 1447.22 950.442 A 143.733 143.733 0 0 1 1409.74 1015.32 C 1378.31 1047.13 1342.48 1058.7 1298.31 1058.73 A 10576.9 10576.9 0 0 0 1163.07 1058.66 C 1137.91 1058.76 1111.76 1060.67 1086.77 1058.56 L 1086.51 1273.36 C 1086.54 1306.25 1087.31 1339.22 1086.75 1372.1 L 1624.41 1372.25 L 1781.7 1372.2 C 1806.66 1372.2 1834.94 1369.94 1859.48 1373.17 C 1871.36 1374.73 1881.23 1380.88 1889.49 1389.29 C 1896.14 1396.06 1901.37 1403.66 1903.42 1413.11 C 1907.32 1431.04 1904.84 1469.14 1904.86 1488.88 C 1904.91 1536.71 1905.73 1584.62 1904.96 1632.43 C 1943.63 1631.78 1979.2 1644.2 2007.25 1671.39 C 2021.74 1685.44 2034.98 1704.63 2040.54 1724.2 C 2042.58 1731.4 2043.74 1742.21 2048 1748.13 L 2048 0 L 1050.01 0 z M 0 0 L 0 1745.16 C 3.93152 1739.82 5.49999 1731.92 7.61803 1725.63 C 14.08 1706.41 23.0578 1690.14 37.4244 1675.62 C 66.8965 1645.83 103.345 1638.08 143.747 1637.88 L 143.065 1438.36 C 143.036 1419.33 146.175 1403.96 160.248 1390.02 C 170.268 1380.09 181.652 1374.75 195.695 1373.05 C 221.886 1369.88 252.221 1372.19 278.905 1372.22 L 441.5 1372.3 L 960.606 1372.16 C 960.092 1341.65 960.735 1310.99 960.731 1280.46 L 960.547 1058.98 C 910.334 1057.32 859.631 1058.4 809.376 1058.43 C 775.223 1058.44 738.516 1061.91 705.263 1052.94 C 679.536 1046 655.933 1031.61 637.087 1012.88 C 618.934 994.839 605.059 973.016 598.293 948.2 C 589.297 915.209 593.123 862.775 593.235 827.045 L 593.282 699.169 C 593.331 659.375 607.395 623.469 635.823 595.394 C 653.882 577.56 675.548 563.708 700.127 556.918 C 734.156 547.519 791.432 551.184 827.791 551.217 L 960.835 551.063 C 960.026 536.689 960.678 521.975 960.711 507.564 L 960.805 423.011 C 952.07 419.325 943.16 416.065 934.449 412.308 A 210.923 210.923 0 0 1 822.385 293.894 C 802.433 242.574 804.036 178.354 826.41 128.051 C 851.541 71.5518 897.691 32.2744 955.475 11.7686 C 969.105 6.93189 984.602 6.025 997.756 0.684491 C 998.302 0.462851 998.842 0.228164 999.386 0 L 0 0 z M 1358.63 1498.49 A 3860.66 3860.66 0 0 0 1358.35 1576.92 C 1358.42 1596.92 1359.1 1617.16 1358.12 1637.13 C 1376.21 1636.44 1394.21 1638.55 1411.41 1644.38 C 1443.78 1655.35 1472 1679.08 1487.08 1709.91 C 1492.96 1721.93 1496.53 1734.69 1498.25 1747.94 C 1502.07 1777.34 1499.92 1808.95 1500.02 1838.64 C 1500.13 1868.53 1502.08 1899.75 1499.65 1929.5 C 1498.78 1940.19 1496.9 1950.64 1493.31 1960.76 C 1479.96 1998.38 1446.98 2028.11 1409.18 2039.89 C 1399.62 2042.86 1387.15 2042.52 1378.5 2047.11 C 1377.96 2047.39 1377.44 2047.7 1376.92 2048 L 1753.17 2048 C 1746.74 2044.1 1738.88 2043.8 1731.71 2042.02 A 126.425 126.425 0 0 1 1673.9 2009.64 C 1648.3 1984.73 1637.24 1955.24 1636.73 1919.93 L 1636.25 1822.55 C 1636.13 1793.22 1633.22 1760.2 1640.23 1731.63 C 1645.6 1709.73 1656.87 1688.35 1672.72 1672.21 C 1705.77 1638.56 1735.09 1634.28 1779.86 1633.71 C 1780.61 1588.61 1779.33 1543.56 1778.89 1498.48 C 1747.7 1499.63 1716.26 1499.03 1685.04 1499.07 L 1509.67 1499 L 1412.14 1499.07 C 1394.64 1499.11 1375.99 1500.53 1358.63 1498.49 z M 272.098 1498.41 C 270.688 1544.89 272.043 1591.42 270.619 1637.88 C 287.898 1636.99 305.74 1639.5 322.271 1644.57 C 356.644 1655.12 383.636 1678.14 400.342 1709.94 C 407.088 1722.78 411.186 1736.29 413.093 1750.65 C 416.775 1778.39 414.728 1808.12 414.792 1836.11 C 414.861 1866.47 416.458 1897.8 414.227 1928.04 A 125.716 125.716 0 0 1 408.729 1957.26 C 396.817 1994.63 366.028 2025.82 329.356 2039.43 C 320.689 2042.65 308.82 2042.68 301.066 2047.11 C 300.573 2047.39 300.099 2047.7 299.615 2048 L 675.07 2048 C 667.617 2043.52 655.435 2043.52 646.95 2042.02 C 623.034 2037.8 598.453 2021.58 581.341 2004.89 A 124.532 124.532 0 0 1 544.65 1917.03 C 544.285 1888.86 544.748 1860.65 544.621 1832.47 C 544.487 1802.8 541.221 1764.95 548.366 1736.31 A 126.022 126.022 0 0 1 581.691 1676.66 C 611.96 1645.97 645.984 1637.63 687.721 1637.18 A 6861.46 6861.46 0 0 0 688.015 1499.37 L 409.154 1499.2 L 321.998 1499.07 C 305.491 1499.06 288.527 1499.96 272.098 1498.41 z M 814.99 1498.41 C 816.794 1514.5 815.79 1531.78 815.814 1548.01 L 815.645 1637.46 C 832.955 1636.86 850.94 1638.24 867.631 1643.03 C 901.744 1652.81 930.484 1678.18 947.221 1709.07 C 954.664 1722.81 958.946 1737.64 961.015 1753.09 C 964.532 1779.35 962.277 1807.35 962.329 1833.85 C 962.388 1863.94 964.188 1895.09 962.006 1925.06 A 141.296 141.296 0 0 1 956.386 1955.15 C 944.804 1992.65 913.234 2025.77 876.558 2039.64 C 867.947 2042.9 855.929 2042.72 848.271 2047.19 C 847.835 2047.45 847.417 2047.73 846.99 2048 L 1210.94 2048 C 1203.96 2043.93 1194.26 2043.41 1186.39 2041.82 C 1161.79 2036.84 1140.01 2022.94 1122.47 2005.36 C 1081.66 1964.45 1085.14 1918.41 1085.2 1865.24 L 1084.95 1782.28 C 1085.06 1742.26 1094.94 1704.89 1124.29 1676.05 C 1157.15 1643.76 1191.33 1636.9 1235.74 1637.17 C 1236.99 1591.18 1234.24 1545.07 1235.47 1499.12 C 1205.7 1500.6 1175 1499.11 1145.14 1499.12 L 952.142 1499.04 L 860.082 1499.15 C 845.64 1499.18 829.095 1501.17 814.99 1498.41 z M 745.521 675.486 C 737.653 676.557 730.953 680.423 726.202 686.857 C 722.05 692.48 720.18 699.104 719.522 705.989 C 718.176 720.073 719.048 734.834 719.146 748.985 L 719.715 823.959 L 719.771 878.996 C 719.764 889.451 718.853 900.753 720.533 911.045 C 721.706 918.227 726.259 925.29 732.215 929.443 C 735.627 931.823 739.289 933.119 743.408 933.611 C 765.765 936.279 790.326 934.228 812.966 934.145 L 936.687 934.09 L 961.317 934.191 C 960.403 918.594 960.924 902.787 960.955 887.161 L 961.111 807.748 C 961.134 763.512 959.189 718.945 960.592 674.756 C 889.057 674.889 816.978 672.859 745.521 675.486 z M 1086.87 673.906 C 1085.32 685.476 1086.24 698.248 1086.23 709.983 L 1086.33 778.925 L 1086.3 882.173 C 1086.31 899.792 1085.6 917.769 1086.6 935.347 C 1107.11 934.306 1127.77 934.878 1148.3 934.908 L 1243.65 934.825 C 1263.05 934.782 1284.41 936.66 1303.52 933.667 C 1308.4 932.902 1312.46 929.915 1316.22 926.896 C 1321.88 920.818 1324.28 916.689 1325.72 908.392 C 1329.07 889.056 1326.88 848.609 1326.82 827.049 C 1326.73 787.997 1328.17 748.309 1326.6 709.331 C 1326.19 699.232 1325.27 689.434 1317.17 682.4 C 1313.67 679.361 1309.54 677.026 1304.99 676.045 C 1290.46 672.912 1273.1 674.583 1258.21 674.574 L 1141.16 674.567 C 1124.5 674.577 1102.8 676.691 1086.87 673.906 z M 1762.38 1760.9 C 1758.77 1772.01 1761.07 1899.29 1760.94 1921.9 C 1814.37 1921.18 1868.08 1923.05 1921.45 1921.49 L 1923.91 1921.06 C 1926.16 1916.68 1925.65 1770.35 1923.45 1764.45 C 1922.96 1763.15 1923 1763.47 1921.46 1762.94 C 1912.23 1759.81 1897.56 1761.79 1887.56 1761.86 L 1810.79 1762.06 C 1795.28 1762.13 1777.57 1763.81 1762.38 1760.9 z M 673.184 1761.29 C 671.145 1794.1 672.332 1827.36 672.457 1860.23 C 672.534 1880.49 671.215 1901.49 672.312 1921.63 A 9123.56 9123.56 0 0 0 835.596 1921.89 C 838.088 1902.95 836.047 1877.37 835.931 1857.82 C 835.742 1825.95 836.7 1793.82 835.374 1761.99 A 10183 10183 0 0 1 727.86 1762.31 C 710.16 1762.33 690.612 1764.15 673.184 1761.29 z M 1213.21 1761.55 C 1211.2 1814.84 1212.28 1868.66 1212.64 1921.98 L 1374.86 1922.17 C 1376.15 1910.18 1375.14 1897.15 1375.13 1885.04 A 6220.52 6220.52 0 0 0 1375.27 1807.76 C 1375.15 1792.57 1373.81 1776.59 1375.03 1761.52 A 3661.22 3661.22 0 0 1 1270.07 1762.1 C 1251.53 1762.11 1231.59 1763.75 1213.21 1761.55 z M 124.725 1761.64 C 123.096 1781.01 123.933 1800.93 123.921 1820.37 L 123.899 1921.02 C 178.342 1922.93 232.976 1921.38 287.466 1921.97 C 284.821 1897.63 287.17 1867.29 287.111 1842.18 C 287.05 1815.65 284.833 1788.08 286.485 1761.69 A 10196.9 10196.9 0 0 1 176.845 1762.32 C 159.943 1762.36 141.374 1764.27 124.725 1761.64 z M 1017.7 127.428 A 91.5181 91.5181 0 0 0 954.503 160.393 A 84.7015 84.7015 0 0 0 935.111 223.743 C 937.515 247.986 948.961 269.294 968.009 284.496 C 986.48 299.239 1008.92 305.515 1032.35 304.298 C 1056.42 301.701 1078.49 290.65 1093.71 271.661 C 1109.32 252.186 1116.01 229.484 1113.23 204.661 A 86.7578 86.7578 0 0 0 1080.67 146.529 C 1061.92 131.532 1041.27 126.836 1017.7 127.428 z M 2048 1934.92 C 2047.7 1935.49 2047.39 1936.05 2047.11 1936.63 C 2043.13 1944.73 2042.97 1955.01 2039.72 1963.56 A 126.687 126.687 0 0 1 1965.12 2038.05 C 1952.95 2042.67 1933.71 2042.11 1923.79 2048 L 2048 2048 L 2048 1934.92 z M 0 1942.87 L 0 2048 L 123.17 2048 C 115.436 2042.74 95.523 2042.56 85.5777 2039.61 C 51.6419 2029.58 23.2383 2000.45 8.95047 1968.78 C 5.50212 1961.14 4.86931 1951.28 0.799004 1944.2 C 0.540567 1943.75 0.266335 1943.31 0 1942.87 z"/>
</svg>