<svg version="1.1" xmlns="http://www.w3.org/2000/svg" style="display: block;" viewBox="0 0 2048 2048" width="512" height="512">
<path transform="translate(0,0)" fill="rgb(0,0,0)" d="M 1499.9 8.36278 C 1500.77 8.30965 1501.63 8.27354 1502.5 8.27594 C 1522.65 8.33173 1541.33 15.7133 1555.29 30.39 C 1577.48 53.7271 1576.32 78.7438 1576.16 108.843 A 3572.18 3572.18 0 0 1 1575.7 157.497 A 113.29 113.29 0 0 1 1581.5 157.273 L 1703.17 157.464 C 1737.9 157.485 1784.58 154.268 1817.41 162.093 A 173.296 173.296 0 0 1 1899.66 207.748 C 1927.59 235.696 1945.23 267.988 1950.83 307.378 C 1953.81 328.329 1952.83 349.92 1952.78 371.037 L 1952.62 458.422 L 1952.71 761.928 L 1952.71 1838.32 C 1952.72 1853.87 1953.02 1869.66 1951.09 1885.12 C 1946.71 1920.12 1929.5 1955.4 1904.46 1980.25 C 1880.03 2004.49 1845.45 2025.13 1811.11 2030.56 C 1791.38 2033.68 1770.37 2032.79 1750.44 2032.77 L 1671.34 2032.63 L 1403.11 2032.66 L 410.5 2032.55 L 312.063 2032.5 C 243.439 2032.46 199.159 2033.62 146.394 1981.88 C 110.622 1946.81 95.1351 1904.29 94.8436 1854.81 L 95.34 778.404 L 95.1465 474.648 L 94.9078 372.455 C 94.9668 349.85 94.063 326.561 97.2812 304.14 C 102.659 266.676 121.197 233.606 147.735 206.929 C 169.147 185.405 195.336 170.784 224.664 163.132 C 263.38 153.03 306.863 156.622 346.654 156.601 L 469.467 156.344 C 469.36 155.064 469.256 153.802 469.229 152.517 C 468.949 139.303 469.343 126.038 469.244 112.816 C 469.019 82.893 468.592 58.908 490.894 36.2106 C 504.071 22.7999 520.303 15.784 539.143 15.8773 C 558.463 15.9731 578.572 23.2736 592.27 37.1619 C 613.538 58.7252 612.832 84.2573 613.324 112.382 A 2047.26 2047.26 0 0 1 613.881 156.898 C 649.291 155.645 685.197 157.036 720.66 157.149 L 928.334 157.448 L 1255.44 157.455 C 1314.94 157.477 1374.54 156.625 1434.02 157.732 C 1432.47 140.455 1432.48 77.9164 1435.82 62.9936 A 65.9128 65.9128 0 0 1 1448.25 36.5255 C 1461.09 19.9687 1479.38 10.8571 1499.9 8.36278 z M 236.435 694.63 C 234.296 774.552 235.681 854.714 235.626 934.672 L 236.353 1442.85 L 236.198 1725.78 L 236.17 1810.2 C 236.129 1824.84 235.006 1840.46 236.462 1855 C 237.467 1865.03 242.375 1873.95 249.308 1881.16 C 265.73 1898.25 289.904 1895.38 311.572 1895.39 L 1268.5 1894.62 L 1601.97 1894.54 L 1720.37 1894.93 C 1735.93 1894.91 1751.97 1896.19 1767.45 1895.19 C 1778.89 1894.45 1788.56 1890.96 1796.82 1882.8 C 1797.88 1881.76 1798.83 1880.66 1799.8 1879.54 C 1804.42 1873.38 1808.58 1866.95 1809.59 1859.16 C 1811.46 1844.75 1811.02 1829.8 1811.04 1815.28 L 1810.9 1756.3 A 11507.5 11507.5 0 0 1 1811.21 1600.82 L 1810.83 924.017 A 6689.44 6689.44 0 0 0 1810.84 785.25 C 1810.42 756.305 1807.94 726.093 1810.11 697.275 L 661.668 695.181 L 357.873 695.103 L 277.923 695.262 C 264.499 695.319 249.596 696.976 236.435 694.63 z M 614.103 296.293 L 614.277 349.265 C 614.314 379.255 616.336 408.806 593.51 431.837 A 70.4355 70.4355 0 0 1 543.253 452.253 C 522.406 452.122 504.366 443.532 489.939 428.681 C 483.045 421.583 477.264 413.275 474.083 403.84 C 467.557 384.478 469.034 328.879 469.477 306.368 A 173.963 173.963 0 0 1 469.974 296.822 C 438.151 295.233 405.882 296.281 374.012 296.265 C 341.041 296.247 307.772 295.259 274.836 296.391 C 262.375 298.361 251.867 302.193 244.177 312.893 C 239.542 319.343 237.888 326.292 236.957 334.035 C 234.294 356.168 235.964 379.893 235.981 402.218 C 236.018 453.557 237.327 505.278 235.79 556.582 A 13945 13945 0 0 1 376.438 556.15 L 672.585 556.233 L 1809.86 556.135 C 1809.39 536.23 1810.2 516.263 1810.22 496.349 L 1809.79 391.882 C 1809.74 372.561 1811.8 342.507 1808.15 324.494 C 1806.83 317.979 1803.24 312.432 1798.52 307.842 C 1795.36 304.772 1791.86 302.396 1788.18 300.023 C 1768.54 292.92 1734.82 296.107 1713.74 296.182 L 1623.85 296.295 C 1608.17 296.316 1592.03 297.161 1576.41 296.178 C 1576.76 322.918 1579.6 381.801 1572.91 404.257 C 1570.01 414.022 1563.73 423.858 1556.66 431.15 C 1542.85 445.386 1524.87 452.56 1505.16 452.839 C 1486.15 453.107 1468.92 445.446 1455.52 432.062 C 1432.64 409.199 1433.86 381 1433.79 350.848 C 1433.76 336.222 1433.4 321.591 1433.47 306.966 A 186.799 186.799 0 0 1 1433.91 296.079 L 865.109 296.214 L 697.787 296.376 C 671.759 296.462 639.469 298.51 614.103 296.293 z"/>
<path transform="translate(0,0)" fill="rgb(0,0,0)" d="M 1448.63 1557.47 A 4020.79 4020.79 0 0 0 1531 1557.63 C 1548.96 1557.48 1569.22 1555.42 1586.82 1558.86 A 62.7608 62.7608 0 0 1 1613.73 1571.23 A 67.6972 67.6972 0 0 1 1638.57 1616.44 C 1640.66 1635.29 1636.3 1654.62 1624.33 1669.56 C 1609.64 1687.88 1592.14 1694.34 1569.4 1696.79 C 1546.53 1697.64 1523.44 1697 1500.55 1696.96 C 1477.99 1696.93 1452.22 1699.58 1430.33 1694.11 A 69.8651 69.8651 0 0 1 1399.66 1677.51 C 1385.73 1664.8 1377.74 1649.07 1377.07 1630.1 C 1376.4 1611.25 1382.65 1593.36 1395.63 1579.59 C 1410.4 1563.92 1427.44 1558.09 1448.63 1557.47 z"/>
<path transform="translate(0,0)" fill="rgb(0,0,0)" d="M 1440.6 908.404 C 1469.32 907.641 1498.16 908.198 1526.9 908.163 C 1545.02 908.14 1565.41 906.125 1583.2 909.525 A 72.0553 72.0553 0 0 1 1612.58 922.572 C 1626.82 933.456 1636.27 950.646 1638.56 968.343 C 1640.93 986.682 1636.58 1004.78 1625.18 1019.47 C 1613.08 1035.07 1596.7 1044.22 1577.24 1046.78 A 77.0491 77.0491 0 0 1 1574.53 1047.13 C 1556.02 1049.23 1536.33 1048.08 1517.68 1048.1 C 1492.13 1048.13 1452.44 1050.89 1428.54 1044.83 C 1419.06 1042.42 1409.08 1036.8 1401.55 1030.58 A 68.4298 68.4298 0 0 1 1377 983.973 C 1375.33 965.145 1380.42 946.087 1392.65 931.493 C 1405.3 916.4 1421.38 910.089 1440.6 908.404 z"/>
<path transform="translate(0,0)" fill="rgb(0,0,0)" d="M 472.302 907.329 C 499.658 905.216 528.412 907.132 555.933 907.199 C 574.595 907.245 594.974 905.033 613.405 907.735 A 69.3283 69.3283 0 0 1 641.302 918.334 A 66.7565 66.7565 0 0 1 670.495 960.75 C 674.32 978.877 671.453 999.225 661.154 1014.81 C 648.57 1033.85 632.07 1041.74 610.254 1046.02 C 586.48 1047.65 562.329 1046.78 538.492 1046.78 C 514.862 1046.79 488.387 1049.08 465.293 1044.38 A 78.806 78.806 0 0 1 433.73 1029.97 C 419.669 1019.32 411.282 1004.31 408.937 986.881 C 406.406 968.079 410.51 948.446 422.3 933.351 C 434.907 917.209 452.406 909.714 472.302 907.329 z"/>
<path transform="translate(0,0)" fill="rgb(0,0,0)" d="M 1440.58 1232.41 C 1470.35 1231.66 1500.25 1232.31 1530.04 1232.33 C 1547.9 1232.33 1568.6 1229.84 1585.99 1233.63 A 66.6642 66.6642 0 0 1 1613.32 1246.79 A 70.6658 70.6658 0 0 1 1639.62 1295.04 C 1641.65 1314.08 1636.28 1332.09 1624.26 1346.98 C 1611.59 1362.67 1595.93 1369.49 1576.25 1371.71 C 1551.67 1372.52 1526.98 1371.95 1502.39 1372.04 C 1479.06 1372.12 1451.98 1374.88 1429.27 1369.67 A 67.1932 67.1932 0 0 1 1400.67 1355.32 C 1386.65 1343.59 1378.07 1325.83 1376.66 1307.66 C 1375.17 1288.5 1381.5 1270.11 1393.96 1255.55 C 1406.23 1241.22 1421.9 1233.83 1440.58 1232.41 z"/>
<path transform="translate(0,0)" fill="rgb(0,0,0)" d="M 465.854 1233.31 C 490.261 1231.18 515.733 1232.92 540.244 1232.92 C 562.209 1232.91 596.015 1230.61 616.95 1234.29 A 65.1189 65.1189 0 0 1 643.754 1245.62 A 69.1457 69.1457 0 0 1 671.472 1290.52 C 674.353 1308.33 671.086 1327.16 660.393 1341.91 A 72.5356 72.5356 0 0 1 613.208 1370.72 C 584.899 1373.15 555.257 1371.1 526.764 1371 C 506.397 1370.93 483.79 1373.34 463.76 1370.05 A 68.5963 68.5963 0 0 1 434.385 1358.09 C 419.369 1347.33 410.017 1330.87 407.2 1312.72 A 69.4612 69.4612 0 0 1 420.183 1260.16 A 67.4653 67.4653 0 0 1 465.854 1233.31 z"/>
<path transform="translate(0,0)" fill="rgb(0,0,0)" d="M 473.779 1558.37 A 6518.98 6518.98 0 0 1 560.44 1558.21 C 578.216 1558.21 597.165 1556.61 614.715 1559.49 A 68.2701 68.2701 0 0 1 641.392 1570 A 66.995 66.995 0 0 1 670.378 1612.34 C 674.004 1630.24 670.719 1650.23 660.407 1665.42 C 647.112 1685 626.978 1693.34 604.533 1697.66 C 585.394 1699.46 565.137 1698.26 545.891 1698.26 C 521.254 1698.26 484.549 1700.89 461.219 1695.47 C 450.803 1693.05 440.493 1687.53 432.207 1680.83 C 417.983 1669.34 409.135 1653.34 407.271 1635.15 C 405.301 1615.91 410.841 1597.91 423.064 1582.94 C 436.627 1566.34 453.034 1560.52 473.779 1558.37 z"/>
<path transform="translate(0,0)" fill="rgb(0,0,0)" d="M 1018.96 890.365 A 74.2283 74.2283 0 0 1 1024.5 890.218 C 1043.57 890.528 1061.02 899.477 1073.89 913.349 C 1092.35 933.25 1090.8 954.395 1089.72 979.565 C 1147.12 982.591 1198.74 997.555 1239.16 1040.95 C 1261.77 1065.22 1285.52 1107.16 1284.2 1141.28 A 68.643 68.643 0 0 1 1261.78 1189.19 A 63.7757 63.7757 0 0 1 1215.13 1205.9 C 1191.84 1204.48 1169.54 1189.91 1159.17 1168.98 C 1153.62 1157.76 1150.48 1145.73 1141.85 1136.27 C 1131.12 1124.51 1116.45 1120.61 1101.12 1119.74 C 1073.9 1118.2 1046.15 1119.16 1018.88 1119.11 C 995.907 1119.07 958.142 1116.44 936.574 1121.74 C 926.947 1124.11 918.82 1129.42 911.558 1135.98 C 899.915 1146.51 893.691 1161.44 893.206 1177.03 C 892.743 1191.96 898.182 1205.08 908.478 1215.71 A 63.674 63.674 0 0 0 938.36 1233.13 C 958.518 1238.22 981.972 1236.19 1002.69 1236.16 C 1036.64 1236.11 1070.76 1235.29 1104.68 1236.12 C 1156.65 1237.4 1205.21 1261.29 1240.62 1298.99 C 1275.68 1336.32 1292.43 1385.85 1290.62 1436.65 C 1288.8 1487.98 1266.73 1533.51 1229.09 1568.13 C 1192.11 1602.12 1139.11 1621.74 1088.9 1619.55 C 1089.08 1631.42 1089.58 1643.57 1088.59 1655.41 C 1086.98 1674.57 1080.63 1690.58 1065.56 1703.09 C 1051.31 1714.93 1035.03 1719.21 1016.75 1717.59 C 1001.53 1714.23 987.45 1708.3 976.423 1696.93 C 956.6 1676.49 959.044 1646.26 959.523 1619.91 C 905.166 1620.36 856.742 1606.12 815.141 1569.95 C 786.164 1544.75 761.732 1509.25 759.131 1469.85 C 757.809 1449.83 762.846 1431.52 776.24 1416.31 C 787.972 1402.98 805.79 1394.94 823.43 1393.91 C 851.614 1392.26 880.859 1408.38 892.869 1434.28 C 900.137 1449.95 900.1 1466.34 914.398 1478.61 C 921.974 1485.11 932.969 1490.34 942.69 1492.42 C 959.158 1495.93 992.012 1493.79 1010.69 1493.74 C 1038.56 1493.67 1067.08 1494.9 1094.86 1493.01 C 1112.26 1491.82 1127.63 1483.59 1138.94 1470.38 C 1148.76 1458.9 1153.33 1444.54 1152.15 1429.47 C 1150.21 1404.62 1132.52 1384.69 1108.85 1377.48 C 1092.53 1372.51 1072.46 1374.59 1055.49 1374.58 C 1016.07 1374.56 963.397 1377.42 925.846 1371.09 C 888.813 1364.84 851.646 1346.87 823.21 1322.42 A 192.145 192.145 0 0 1 757.718 1191.07 C 753.971 1137.82 770.013 1085.85 805.145 1045.47 C 835.335 1010.77 877.502 989.446 922.741 982.329 C 934.551 980.471 946.641 979.971 958.559 979.129 C 958.272 956.413 958.529 934.124 972.85 915.239 C 984.644 899.687 1000.02 893.073 1018.96 890.365 z"/>
</svg>