<svg version="1.1" xmlns="http://www.w3.org/2000/svg" style="display: block;" viewBox="0 0 2048 2048" width="512" height="512">
<path transform="translate(0,0)" fill="rgb(0,0,0)" d="M 0 0 L 964.927 0 L 992.528 0 L 2048 0 L 2048 2048 L 1602.75 2048 L 360.172 2048 L 0 2048 L 0 0 z M 992.528 0 C 993.079 0.3967 993.626 0.799956 994.182 1.1901 C 999.737 5.08821 1006.67 7.44423 1012.62 10.7613 C 1026.81 18.6779 1035.05 34.5904 1038.09 50.0895 C 1041.43 67.1479 1039.99 86.0763 1040.04 103.467 A 7993.87 7993.87 0 0 0 1040.51 185.011 A 2350.86 2350.86 0 0 0 1099.27 185.532 C 1098.96 162.715 1098.09 141.69 1115.06 123.961 C 1126.01 112.528 1140.87 106.624 1156.57 106.299 C 1173.81 105.942 1191.06 112.099 1203.43 124.277 C 1222.43 142.973 1222.16 167.985 1222.15 192.773 L 1221.98 282.858 C 1221.97 301.159 1224.28 322.61 1220.14 340.469 C 1217.64 351.218 1212.53 360.824 1204.75 368.68 A 62.6969 62.6969 0 0 1 1160.46 387.148 C 1143.9 387.193 1126.77 379.58 1115.34 367.655 C 1100.72 352.409 1098.4 333.606 1098.96 313.52 A 300.408 300.408 0 0 1 1099.11 309.475 C 1080.38 310.189 1059.24 312.109 1040.82 309.036 C 1039.5 335.989 1039.93 363.123 1039.96 390.105 C 1039.99 416.982 1039.62 443.939 1040.28 470.806 A 6974.04 6974.04 0 0 0 1244.09 472.311 C 1268.33 472.322 1314.55 469.608 1336.23 473.994 C 1349.88 476.755 1361.17 484.19 1370.57 494.274 C 1384.73 509.463 1388.76 526.077 1387.91 546.412 C 1384.3 632.421 1357.84 713.377 1308.01 783.711 C 1296.63 799.777 1282.99 813.76 1271.06 829.282 C 1291.05 834.953 1306.26 841.642 1316.63 860.616 C 1324.71 875.391 1326.12 894.9 1321.28 910.949 C 1316.81 925.761 1306 937.777 1292.46 944.994 A 56.5797 56.5797 0 0 1 1274.27 951.051 C 1255.26 954.106 1213.82 953.248 1194.12 950.968 C 1213.31 1120.79 1250.48 1251.02 1332.79 1401.53 C 1340.99 1416.53 1358.89 1454.19 1370.96 1463.26 C 1379.63 1469.78 1390.67 1473.9 1399.8 1480.27 C 1437.84 1506.78 1465.62 1544.15 1473.64 1590.35 C 1479.36 1623.24 1475.52 1659.06 1476.07 1692.4 C 1495.98 1699.88 1515.55 1707.45 1534.09 1717.97 C 1576.9 1742.24 1611.99 1782.1 1632.3 1826.73 C 1652.66 1871.43 1654.43 1916.38 1653.45 1964.42 C 1653.14 1979.24 1654 1995.23 1648.53 2009.29 C 1643.4 2022.49 1631.4 2035.86 1618.12 2041.34 C 1613.39 2043.29 1606.72 2044.85 1602.75 2048 L 2048 2048 L 2048 0 L 992.528 0 z M 0 0 L 0 2048 L 360.172 2048 C 353.795 2043.32 344.094 2041.34 336.991 2037.22 C 323.781 2029.56 314.476 2017.77 310.478 2002.98 C 306.818 1989.43 308.165 1974.49 308.152 1960.59 C 308.097 1901.83 312.152 1856.16 343.193 1804.22 C 374.62 1751.64 423.409 1711.34 483.351 1696.28 C 482.561 1654.56 479.287 1607.84 493.11 1568.17 C 506.38 1530.08 531.347 1499.81 566.748 1480.38 C 577.748 1474.35 589.348 1469.87 600.632 1464.47 C 606.455 1451.53 607.831 1436.96 613.77 1424.04 C 619.903 1410.7 627.676 1397.87 634.477 1384.84 C 648.225 1358.5 661.754 1331.59 674.208 1304.63 C 724.129 1196.53 759.485 1071.37 765.713 952.237 C 736.43 952.362 687.219 957.682 662.947 939.902 C 649.085 929.748 640.721 913.878 638.404 897.032 C 636.177 880.843 639.944 864.408 649.937 851.362 C 661.79 835.89 677.758 829.512 696.607 826.996 A 726.982 726.982 0 0 1 685.176 816.305 C 670.666 802.372 657.718 785.661 646.225 769.16 C 600.11 702.956 578.14 627.139 576.719 546.741 C 576.337 525.162 579.918 507.483 595.532 491.618 A 59.9354 59.9354 0 0 1 627.548 474.366 C 651.371 469.855 696.738 472.376 723.054 472.368 L 919.017 471.856 C 920.191 417.674 919.393 363.568 919.161 309.385 C 900.3 308.418 880.2 312.107 861.636 309.069 C 858.824 331.637 860.61 352.464 843.356 370.192 C 831.593 382.279 814.821 387.682 798.24 387.859 C 782.139 388.03 765.693 380.91 754.379 369.507 C 748.802 363.886 742.554 355.402 740.538 347.674 C 734.83 325.79 737.588 299.221 737.553 276.674 L 737.325 179.02 C 737.355 156.585 739.717 138.243 756.42 121.862 C 767.961 110.544 782.848 105.748 798.774 106.065 C 815.831 106.405 831.507 113.692 843.229 126.016 C 859.65 143.281 859.304 162.876 858.786 185.001 C 878.574 184.525 898.458 185.008 918.255 185.087 C 917.622 164.851 919.009 144.482 919.122 124.226 C 919.254 100.837 916.376 70.2055 921.212 47.8312 C 924.839 31.0547 933.547 17.8795 948.476 9.02533 C 953.623 5.973 959.161 3.75584 964.197 0.484996 C 964.442 0.325894 964.683 0.161665 964.927 0 L 0 0 z M 890.993 951.939 L 890.578 953.825 C 886.147 974.724 885.603 1001.12 882.209 1023.12 A 1273.32 1273.32 0 0 1 840.747 1204.7 C 823.177 1260.19 800.094 1315.01 775.552 1367.73 C 762.636 1395.47 745.309 1427.6 734.549 1455.69 L 1070.25 1455.14 L 1175.64 1455.32 C 1191.44 1455.34 1208.12 1456.68 1223.8 1455.45 C 1220.08 1442.24 1211.27 1429.71 1204.96 1417.5 A 1106.4 1106.4 0 0 1 1174.81 1354.52 C 1127.34 1244.51 1094.42 1136.8 1079.86 1017.5 C 1077.27 996.27 1073.07 973.664 1073.82 952.333 C 1029.86 951.731 985.783 952.454 941.805 952.247 C 924.999 952.168 907.748 952.955 890.993 951.939 z M 855.156 1811.5 A 20438.1 20438.1 0 0 1 636.476 1811.82 L 572.067 1811.67 C 553.789 1811.63 534.709 1810.5 516.767 1814.44 C 495.827 1819.04 477.409 1830.31 462.418 1845.47 C 437.246 1870.92 431.322 1893.67 426.636 1927.92 L 1104.5 1928.09 L 1532.28 1928.2 C 1529 1890.13 1522 1862.21 1491.3 1836.62 A 107.384 107.384 0 0 0 1436.94 1812.21 C 1415.58 1809.08 1392.34 1810.84 1370.72 1810.84 L 1250.06 1810.84 L 1095.93 1811.34 A 18229.4 18229.4 0 0 0 855.156 1811.5 z M 1278.73 1574.5 L 840.467 1574.57 L 716.566 1574.53 C 692.788 1574.52 666.97 1572.75 643.453 1576.25 C 634.614 1577.56 625.052 1583.53 618.924 1589.93 C 613.24 1595.86 609.422 1603.4 607.421 1611.33 C 602.243 1631.85 605.214 1668.96 605.464 1691.12 L 681.861 1690.54 L 1148.11 1690.91 L 1282.74 1690.58 C 1306.07 1690.47 1329.67 1689.52 1352.97 1690.52 C 1352.06 1667.92 1355.87 1626.18 1350.24 1606.66 C 1348.02 1599 1343.9 1592.12 1337.93 1586.8 C 1321.53 1572.17 1299.11 1574.23 1278.73 1574.5 z M 702.214 591.672 C 707.593 608.947 710.546 626.566 717.051 643.581 A 283.131 283.131 0 0 0 848.117 790.503 C 917.612 827.141 989.919 835.907 1065.4 812.334 C 1130.56 791.987 1188.4 743.853 1223.24 685.54 C 1240.5 655.767 1250.84 625.798 1257.43 592.138 L 1110.93 592.581 C 1087.78 592.631 1063.7 594.061 1040.65 592.243 C 1040.24 621.18 1045.4 660.305 1022.72 681.926 C 1010.36 693.711 992.771 699.986 975.758 699.263 C 959.243 698.562 944.373 691.448 933.301 679.152 C 912.807 656.391 920.656 621.364 919.756 593.14 C 901.085 591.558 881.922 592.259 863.185 592.213 L 762.613 592.179 C 742.592 592.203 722.198 592.842 702.214 591.672 z"/>
<path transform="translate(0,0)" fill="rgb(0,0,0)" d="M 1534.69 827.458 C 1582.91 827.051 1624.55 839.655 1663.1 869.339 A 194.028 194.028 0 0 1 1737.77 998.334 C 1744.28 1049.66 1731.36 1099.07 1699.52 1140.01 C 1673.32 1173.7 1637.46 1199.55 1595.91 1210.61 C 1581.9 1214.34 1567.67 1216.02 1553.32 1217.85 C 1501.07 1220.99 1449.11 1200.54 1410.19 1166.21 C 1371.73 1132.29 1350.75 1085.7 1347.86 1034.78 C 1344.96 983.407 1358.95 932.924 1393.8 894.263 C 1432.01 851.864 1477.97 830.458 1534.69 827.458 z M 1531.9 954.479 A 73.4764 73.4764 0 0 0 1483.55 983.002 C 1472.58 997.816 1467.65 1017.67 1470.56 1035.9 C 1473.46 1054.04 1484.6 1072.12 1499.51 1082.85 C 1515.71 1094.51 1535.42 1098.45 1554.99 1095.82 C 1577.15 1090.34 1594.79 1078.98 1606.8 1059.16 C 1616.19 1043.67 1618.39 1026.59 1614.1 1009.12 C 1609.53 990.534 1598.16 973.967 1581.69 964.007 C 1566.13 954.604 1549.76 952.316 1531.9 954.479 z"/>
</svg>