<svg version="1.1" xmlns="http://www.w3.org/2000/svg" style="display: block;" viewBox="0 0 2048 2048" width="512" height="512">
<path transform="translate(0,0)" fill="rgb(0,0,0)" d="M 0 0 L 2048 0 L 2048 1028.97 L 2048 1068.76 L 2048 2048 L 0 2048 L 0 1315.86 L 0 1119.42 L 0 0 z M 0 0 L 0 1119.42 C 4.93907 1112.03 6.44975 1100.13 9.21659 1091.52 A 142.916 142.916 0 0 1 30.6773 1050.51 C 64.7538 1004.5 103.913 988.778 158.692 980.417 C 181.501 903.627 224.266 821.459 273.324 758.4 C 266.453 752.557 259.953 745.676 253.927 738.955 C 205.522 684.968 169.709 618.112 161.562 545.408 C 159.284 525.077 159.85 504.575 159.875 484.154 C 159.892 470.079 159.024 455.776 159.925 441.734 C 160.75 428.871 165.103 417.198 175.186 408.732 C 195.74 391.474 269.561 392.323 297.074 394.706 C 369.461 400.974 440.536 436.617 491.238 488.317 C 505.949 503.318 517.926 520.705 531.42 536.757 C 578.709 509.816 627.96 490.168 678.99 471.667 C 695.788 465.578 718.741 460.543 733.566 453.489 C 732.025 446.208 728.474 438.873 725.899 431.867 C 722.099 421.529 718.609 410.791 715.774 400.15 C 701.44 346.338 704.503 282.57 721.647 229.818 A 314.031 314.031 0 0 1 880.681 43.9881 A 312.872 312.872 0 0 1 1119.25 24.6958 A 322.331 322.331 0 0 1 1306.66 186.237 A 317.214 317.214 0 0 1 1331.15 409.914 C 1326.27 428.232 1317.87 445.027 1311.98 462.965 C 1333.25 467.597 1354.6 477.053 1374.64 485.429 A 949.238 949.238 0 0 1 1590.74 608.661 C 1736.45 720.653 1841.97 869.407 1878.49 1051.49 C 1882.45 1071.21 1883.54 1090.91 1886.14 1110.78 C 1895.52 1109.57 1904.46 1107.67 1912.53 1102.42 C 1943.68 1082.13 1933.37 1054.85 1939.9 1026.49 C 1942.89 1013.49 1949.82 1001.21 1961.54 994.242 C 1974.28 986.658 1993.49 984.836 2007.63 988.796 C 2028.48 994.639 2038.38 1011.35 2048 1028.97 L 2048 0 L 0 0 z M 1887.45 1223.55 C 1883.17 1251.67 1880.9 1279.62 1874.72 1307.47 C 1845.48 1439.3 1773.48 1555.14 1680.38 1651.66 C 1663.45 1669.21 1644.86 1684.71 1626.5 1700.69 C 1618.85 1707.35 1610.47 1713.83 1603.51 1721.15 C 1602.65 1744.1 1603.17 1767.19 1603.18 1790.16 L 1603.18 1907.15 C 1603.17 1931.12 1605.74 1966.3 1600.55 1988.67 C 1597.95 1999.87 1590.85 2010.29 1582.44 2018.03 C 1575.79 2024.15 1566.42 2030.42 1557.57 2032.48 C 1534.81 2037.78 1477.59 2035.15 1451.37 2035.16 C 1408.53 2035.19 1364.95 2036.86 1322.18 2034.86 C 1301.09 2033.88 1282.92 2029.01 1268.47 2012.85 C 1262.33 2005.99 1258.45 1999.34 1256.24 1990.35 C 1250.89 1968.52 1253.94 1942.42 1253.93 1920 C 1253.92 1903.31 1252.88 1886.49 1253.83 1869.83 A 1034.87 1034.87 0 0 1 831.082 1884.19 C 808.845 1880.13 775.35 1874.13 754.978 1866.03 C 756.906 1888.06 755.499 1911.14 755.459 1933.27 C 755.426 1951.73 757.302 1972.91 754.342 1991.07 C 752.919 1999.8 749.921 2009.14 744.034 2015.91 C 733.443 2028.1 717.988 2034.53 702.078 2035.21 C 683.502 2036 664.778 2035.48 646.18 2035.44 L 554.93 2035.38 L 498.669 2035.33 C 486.754 2035.3 473.817 2036.09 462.085 2033.98 C 451.623 2032.09 440.87 2026.01 433.154 2018.81 C 420.565 2007.05 416.87 1992.7 416.371 1976.04 C 415.714 1954.04 416.273 1931.86 416.285 1909.84 L 416.309 1790.92 C 416.335 1768.66 417.327 1745.84 416.116 1723.63 L 415.19 1722.7 C 396.449 1704.19 374.004 1688.99 354.606 1671.03 A 817.478 817.478 0 0 1 214.219 1501.19 C 206.388 1488.31 197.711 1474.86 192.577 1460.64 C 177.481 1459.35 161.937 1459.87 146.986 1457.64 C 106.975 1451.69 66.2045 1429.52 40.1607 1398.4 C 26.1257 1381.63 13.8369 1362.32 7.56029 1341.25 C 5.35512 1333.85 4.15961 1322.1 0 1315.86 L 0 2048 L 2048 2048 L 2048 1068.76 C 2047.75 1069.22 2047.48 1069.67 2047.24 1070.13 C 2042.38 1079.45 2044.21 1093.71 2041.19 1104 C 2039.46 1109.89 2036.52 1115.87 2034.04 1121.5 C 2014.85 1165 1979.74 1196.81 1935.11 1212.82 C 1920.32 1218.13 1903.22 1222.85 1887.45 1223.55 z"/>
<path transform="translate(0,0)" fill="rgb(254,254,254)" d="M 271.236 503.524 A 186.303 186.303 0 0 1 304.204 506.356 C 362.099 516.451 405.426 548.865 438.617 596.309 C 422.891 607.633 407.67 620.164 392.643 632.403 C 375.686 644.504 357.642 661.407 344.744 677.723 C 293.99 620.955 269.456 582.942 271.236 503.524 z"/>
<path transform="translate(0,0)" fill="rgb(254,254,254)" d="M 1006.94 122.412 C 1007.23 122.37 1007.53 122.314 1007.82 122.284 C 1058.77 117.097 1117.13 136.42 1155.97 169.379 C 1196.77 204.002 1224.4 255.093 1228.4 308.664 C 1232.51 363.901 1217.34 415.213 1180.83 457.324 C 1144.54 499.176 1093.81 523.179 1038.76 527.246 L 1037.83 527.355 C 988.8 532.662 933.06 514.222 895.018 483.445 A 204.931 204.931 0 0 1 819.515 344.557 A 197.429 197.429 0 0 1 863.432 197.446 C 899.913 153.183 950.134 128.057 1006.94 122.412 z"/>
<path transform="translate(0,0)" fill="rgb(0,0,0)" d="M 1020.44 177.383 C 1022.88 177.738 1026.06 178.407 1027.93 180.15 C 1032.84 184.731 1031.74 194.602 1031.69 200.766 C 1058.41 205.292 1084.71 212.229 1100.97 235.85 C 1105.41 242.296 1108.49 250.469 1106.7 258.362 C 1105.68 262.872 1102.96 266.53 1098.87 268.713 C 1080.18 278.67 1061.38 260.103 1046.43 251.254 C 1041.89 248.569 1036.97 246.881 1032 245.203 L 1031.97 293.686 C 1053.47 301.245 1077.81 309.218 1095.89 323.348 C 1109.19 333.74 1116.95 347.125 1119 363.94 C 1121.41 383.779 1116.72 402.661 1104.21 418.38 C 1085.73 441.598 1059.02 448.122 1030.99 451.158 C 1031.15 456.959 1031.84 463.609 1031.05 469.337 C 1030.45 473.716 1029.41 477.62 1025.88 480.495 C 1022.71 480.855 1022.03 480.211 1019.24 478.823 L 1020.03 477.974 L 1017.98 477.957 C 1015.71 475.381 1015.61 474.499 1014.88 471.25 C 1014.79 464.538 1014.93 457.809 1014.97 451.096 C 1006.76 450.212 998.924 448.663 991.031 446.182 C 967.978 438.935 942.687 423.858 931.561 401.428 C 928.041 394.331 926.942 386.713 929.737 379.146 C 931.27 374.993 934.052 371.412 938.257 369.767 C 959.401 361.493 980.735 386.849 995.774 397.982 C 1002.29 402.806 1008.65 406.129 1016.1 409.322 C 1015.44 390.078 1014.87 370.898 1015.41 351.644 C 996.733 344.213 976.218 335.586 960.244 323.277 C 946.521 312.702 935.069 297.778 933.083 280.119 C 931.138 262.821 937.346 245.269 948.395 232.013 C 965.057 212.024 991.681 203.435 1016.79 201.332 C 1016.63 192.928 1015.87 184.796 1020.44 177.383 z"/>
<path transform="translate(0,0)" fill="rgb(254,254,254)" d="M 1011.64 246.933 C 1013.06 246.978 1012.22 246.802 1013.95 248.084 C 1016.2 260.289 1014.85 274.903 1015.07 287.428 L 1004.06 280.895 C 999.906 277.944 996.187 274.674 994.318 269.788 C 992.91 266.11 993.01 262.27 994.713 258.707 C 998.197 251.416 1004.57 249.38 1011.64 246.933 z"/>
<path transform="translate(0,0)" fill="rgb(254,254,254)" d="M 1030.73 354.026 C 1037.23 356.908 1044.05 359.629 1050.02 363.539 C 1055.76 367.303 1061.28 372.427 1062.61 379.462 C 1064.09 387.229 1060.07 394.14 1055.72 400.199 C 1048.61 406.965 1040.55 407.208 1031.3 407.742 C 1030.6 389.898 1031.04 371.9 1030.73 354.026 z"/>
<path transform="translate(0,0)" fill="rgb(254,254,254)" d="M 800.007 551.33 C 800.784 551.287 801.604 550.944 802.339 551.201 C 802.604 551.294 836.33 577.474 840.865 580.58 C 809.742 590.322 778.874 598.757 748.33 610.382 C 717.657 622.055 689.527 635.377 661.092 651.715 C 650.999 657.513 640.434 663.163 631.74 670.994 C 625.613 676.512 620.582 683.155 617.342 690.77 C 611.372 704.799 611.002 722.991 617.187 736.984 C 623.261 750.725 635.503 761.695 649.532 766.907 C 678.953 777.836 696.966 762.091 719.773 746.508 C 728.033 740.865 737.026 735.884 746.097 731.677 C 765.159 722.836 784.578 714.006 804.423 707.075 C 940.723 659.474 1098.62 658.803 1233.8 710.16 C 1253.58 717.676 1273.47 727.073 1291.51 738.197 C 1305.41 746.772 1318.68 758.512 1334.23 763.846 A 55.0178 55.0178 0 0 0 1377.28 760.45 C 1390.39 753.587 1400.35 742.095 1404.58 727.843 C 1408.79 713.654 1406.79 697.305 1399.49 684.41 C 1390.62 668.74 1374.42 660.108 1359.51 651.099 C 1310.67 621.573 1258.01 601.072 1203.11 585.772 C 1214.79 575.08 1228.65 565.719 1241.5 556.413 C 1267.72 558.854 1296.43 571.58 1320.65 581.53 C 1426.27 624.938 1527.16 685.57 1607.39 767.685 C 1719.62 882.558 1780.1 1018.53 1778.15 1179.64 C 1776.35 1328.48 1707.52 1471.6 1602.84 1575.73 C 1584.95 1593.52 1564.81 1610.59 1545.19 1626.44 C 1534.38 1635.17 1522.32 1643.45 1512.45 1653.22 C 1504.81 1660.78 1499.79 1668.42 1497.07 1678.91 C 1491.05 1702.16 1494.16 1733.8 1494.3 1758.31 A 5944.51 5944.51 0 0 1 1494.21 1829.49 L 1494.04 1924.96 A 6399.17 6399.17 0 0 1 1366.69 1925.13 C 1365.29 1892.83 1366.84 1860.08 1367.09 1827.72 C 1367.21 1811.36 1369 1793.18 1365.2 1777.22 C 1363.28 1769.14 1358.53 1762.07 1352.83 1756.14 C 1335.94 1738.55 1318.97 1735.98 1296.21 1742.62 C 1274.36 1749 1252.94 1756.57 1230.76 1761.84 A 972.837 972.837 0 0 1 829.068 1770.38 C 806.575 1766.14 784.736 1760.5 762.781 1754.04 C 744.712 1748.72 719.59 1737.27 701.521 1737.14 A 57.2039 57.2039 0 0 0 660.851 1754.08 C 654.937 1759.97 649.61 1767.18 647.272 1775.28 C 641.604 1794.89 644.155 1819.15 644.092 1839.53 L 644.015 1926.03 A 6671.1 6671.1 0 0 1 527.078 1925.7 L 527.148 1763.17 C 527.164 1739.5 529.528 1699.45 525.342 1677.87 C 520.782 1654.36 493.69 1639.58 476.045 1626.47 A 441.907 441.907 0 0 1 448.757 1604.44 C 408.974 1569.98 371.634 1532.94 340.213 1490.54 C 326.526 1472.07 314.155 1452.37 302.401 1432.63 C 291.67 1414.6 276.014 1375.49 261.264 1364.34 C 230.246 1340.88 175.013 1363.84 139.518 1339.54 C 125.95 1330.25 114.98 1315.67 111.957 1299.39 C 107.203 1273.8 110.548 1231.45 110.769 1204.12 C 110.929 1184.31 107.698 1148.36 112.749 1130.85 C 129.07 1074.29 217.868 1099.92 246.161 1058.48 C 255.218 1045.21 264.16 1005.34 271.33 986.932 C 292.391 932.865 317.465 884.742 350.576 836.895 C 439.075 709.01 589.408 613.138 736.939 568.489 C 757.77 562.184 778.561 555.239 800.007 551.33 z"/>
<path transform="translate(0,0)" fill="rgb(0,0,0)" d="M 475.321 910.362 C 489.502 909.265 505.014 913.099 516.977 920.821 C 535.049 932.485 545.631 952.938 549.923 973.513 C 555.138 998.508 551.587 1024.96 537.318 1046.45 C 525.608 1064.09 510.349 1073.19 489.901 1077.42 A 65.8132 65.8132 0 0 1 443.233 1065.2 C 424.988 1052.03 415.326 1031.01 411.905 1009.21 C 408.06 984.714 414.334 957.015 429.259 937.101 C 440.823 921.671 456.341 913.031 475.321 910.362 z"/>
<path transform="translate(0,0)" fill="rgb(0,0,0)" d="M 1015.33 868.234 A 57.997 57.997 0 0 1 1058.78 880.685 C 1072.61 892.078 1077.32 906.657 1078.85 923.929 C 1085.47 925.845 1091.84 928.053 1098.18 930.768 C 1147.51 951.9 1182.01 985.818 1201.7 1035.81 C 1209.79 1056.35 1220.05 1091.36 1210.31 1112.56 C 1204.26 1125.73 1192.18 1136.95 1178.42 1141.66 C 1162.61 1147.07 1143.02 1145.96 1128.25 1138.06 C 1100.27 1123.1 1108.27 1103.19 1100.6 1078.94 C 1094.61 1059.98 1080.22 1044.53 1062.55 1035.75 C 1041.03 1025.05 1014.54 1024.96 992.137 1032.79 C 973.195 1039.41 958.295 1052.33 949.592 1070.52 C 941.573 1087.28 940.263 1105.48 946.678 1122.99 C 957.583 1152.77 985.166 1166.88 1015.42 1168.99 C 1030.48 1170.04 1045.62 1168.77 1060.66 1170.36 C 1079.13 1172.32 1097.75 1178.04 1114.55 1185.87 C 1154.56 1204.51 1188.47 1240.67 1203.38 1282.34 A 187.019 187.019 0 0 1 1196.14 1425.68 C 1171.56 1476.85 1131.19 1504.54 1079.03 1522.56 C 1079.84 1537.45 1075.45 1550.78 1065.65 1562.09 C 1054.33 1575.16 1039.6 1581.07 1022.64 1582.19 C 1009.02 1580.24 996.958 1576.45 986.39 1567.19 C 972.818 1555.3 967.016 1539.96 965.909 1522.31 A 232.356 232.356 0 0 1 941.377 1512.35 C 891.781 1488.83 856.431 1453.37 837.979 1401.29 C 830.308 1379.64 823.079 1347.88 834.07 1326.21 C 840.006 1314.51 850.73 1306.65 863.021 1302.59 C 879.069 1297.3 898.875 1298.9 913.785 1306.91 C 938.778 1320.34 934.311 1341.57 941.619 1363.71 C 948.395 1384.24 966.267 1402.38 985.498 1411.76 C 1006.44 1421.97 1031.61 1422.57 1053.41 1414.68 C 1072.3 1407.85 1090.42 1392.45 1098.64 1373.89 C 1106.2 1356.81 1107.75 1337.15 1101.06 1319.53 A 65.0139 65.0139 0 0 0 1083.12 1293.96 C 1058.61 1272.32 1030.4 1278.1 1000.29 1276.19 C 978.269 1274.8 955.973 1270.79 935.734 1261.73 C 894.794 1243.38 858.811 1206.77 842.779 1164.72 C 826.586 1122.26 827.555 1071.8 846.325 1030.27 C 870.649 976.445 914.636 943.896 968.748 923.742 C 968.933 911.413 971.482 899.891 978.612 889.607 C 987.564 876.696 1000.33 870.857 1015.33 868.234 z"/>
</svg>