<svg version="1.1" xmlns="http://www.w3.org/2000/svg" style="display: block;" viewBox="0 0 2048 2048" width="512" height="512">
<path transform="translate(0,0)" fill="rgb(0,0,0)" d="M 0 0 L 612.243 0 L 1442.51 0 L 2048 0 L 2048 2048 L 1226.78 2048 L 823.12 2048 L 0 2048 L 0 0 z M 1197.9 730.494 C 1078.41 732.005 958.848 729.218 839.377 731.103 C 818.777 747.776 800.437 769.422 782.115 788.612 A 8022.57 8022.57 0 0 0 683.162 892.784 A 11065.6 11065.6 0 0 0 551.735 1032.51 C 526.769 1059.35 499.892 1085.08 476.861 1113.59 C 417.373 1187.23 377.081 1284.58 367.035 1378.72 A 498.227 498.227 0 0 0 473.024 1741.52 A 493.763 493.763 0 0 0 812.909 1923.92 A 462.471 462.471 0 0 0 852.301 1925.88 L 1084.39 1925.89 C 1129.69 1925.89 1176.07 1927.83 1221.24 1924.46 C 1338.35 1915.72 1446.44 1870.16 1530.32 1786.84 C 1594.87 1722.7 1639.37 1654.37 1664.82 1566.6 A 475.421 475.421 0 0 0 1684 1434.77 C 1684.03 1401.1 1680.83 1366.46 1674.13 1333.44 C 1661.11 1269.35 1629.26 1189.23 1589.39 1137.04 C 1578.29 1122.52 1565.44 1109.39 1553.02 1096.02 L 1483.86 1022.58 C 1417.94 951.414 1350.22 881.859 1284.62 810.4 C 1269 793.379 1252.73 776.913 1236.67 760.298 C 1227.45 750.755 1217.41 741.473 1209.65 730.684 L 1197.9 730.494 z M 1442.51 0 C 1442.73 0.164832 1442.95 0.333171 1443.17 0.494495 C 1449.01 4.7532 1455.99 7.38035 1462.19 11.1284 C 1482.8 23.5977 1498.27 41.4133 1502.19 65.6719 C 1506.18 90.2886 1500.91 111.278 1486.26 131.33 C 1478.35 142.146 1469.03 152.137 1460.49 162.473 A 5156.78 5156.78 0 0 0 1415.21 218.429 C 1371.42 273.594 1328.86 330.106 1283.56 384.034 C 1334.4 401.618 1371.69 427.997 1395.86 477.369 A 172.216 172.216 0 0 1 1403.12 609.392 C 1391.37 642.786 1367.36 675.493 1337.76 695.29 C 1354.3 710.828 1368.48 728.693 1384.25 744.98 L 1519.56 886.337 L 1616.4 989.691 C 1639.64 1014.38 1664.2 1038.49 1684.81 1065.45 C 1705.31 1092.28 1721.85 1121.96 1736.68 1152.23 C 1777.7 1235.89 1801.05 1323.08 1803.84 1416.42 A 608.846 608.846 0 0 1 1640.75 1844.48 C 1546.58 1944.11 1437.85 2010.15 1302.39 2036.91 C 1290.37 2039.29 1232.15 2044.49 1226.78 2048 L 2048 2048 L 2048 0 L 1442.51 0 z M 0 0 L 0 2048 L 823.12 2048 C 814.431 2043.61 764.983 2040.18 750.164 2037.41 C 651.388 2018.96 560.119 1979.32 481.119 1916.69 A 626.623 626.623 0 0 1 247.632 1497.06 C 234.27 1382.06 259.135 1267.4 307.169 1162.96 C 322.301 1130.06 339.334 1097.95 360.544 1068.51 C 387.014 1031.77 419.203 1000.55 449.973 967.501 L 607.809 799.967 L 669.406 734.71 C 681.823 721.642 695.512 708.823 706.599 694.616 L 707.434 693.535 C 679.745 673.114 659.158 648.74 646.542 616.494 C 629.894 573.944 631.488 520.78 649.965 479.016 C 670.753 432.029 713.788 401.423 760.413 383.429 C 740.463 355.811 717.87 329.818 696.629 303.166 L 607.115 188.791 C 590.637 167.905 564.447 138.979 551.269 117.509 C 540.572 100.081 537.723 79.8699 542.693 60.0098 C 548.536 36.662 566.446 20.5828 587.809 11.096 C 595.133 7.84362 603.855 5.2534 610.604 1.04993 C 611.155 0.70699 611.696 0.349978 612.243 0 L 0 0 z M 812.119 494.389 C 794.102 495.776 779.842 502.111 768.081 516.05 A 57.5284 57.5284 0 0 0 754.768 558.925 C 756.427 575.223 765.545 591.062 778.344 601.196 C 787.263 608.257 797.631 612.027 808.83 613.371 C 826.502 615.492 845.296 614.097 863.107 614.049 L 959.458 613.992 L 1137.69 614.059 C 1170.51 614.042 1203.43 614.558 1236.23 613.608 C 1255.23 611.527 1268.8 604.114 1280.76 589.099 C 1290.55 576.808 1294.76 560.341 1292.64 544.787 C 1290.68 530.446 1281.11 515.065 1269.57 506.52 C 1260.02 499.439 1249.44 496.129 1237.7 494.892 C 1210.15 491.987 1178.58 493.963 1150.49 493.901 A 11772.2 11772.2 0 0 0 982.67 493.836 A 9473.55 9473.55 0 0 1 874.583 493.833 C 853.977 493.736 832.634 492.443 812.119 494.389 z M 705.924 120.194 C 709.221 128.061 740.215 164.73 747.458 173.791 A 9118.46 9118.46 0 0 0 874.068 330.574 C 886.528 345.809 899.04 364.419 912.922 378.031 C 931.077 379.327 949.363 378.754 967.537 378.111 C 966.054 324.112 966.824 270.129 966.659 216.123 C 966.564 184.691 964.546 152.396 966.327 121.06 L 705.924 120.194 z M 1084.36 119.914 C 1083.37 144.162 1083.95 168.579 1083.92 192.85 C 1083.85 254.385 1084.89 316.085 1083.82 377.596 C 1100.72 376.934 1117.65 378.184 1134.56 377.947 A 3042 3042 0 0 0 1180.28 321.711 C 1195.31 302.639 1210.09 282.851 1226.14 264.665 A 7502.78 7502.78 0 0 1 1301.09 170.415 C 1314.16 154.048 1328.03 137.816 1340.13 120.727 C 1319.09 118.321 1294.06 120.63 1272.5 120.75 L 1139.4 120.81 C 1121.47 120.781 1102.04 122.361 1084.36 119.914 z"/>
<path transform="translate(0,0)" fill="rgb(0,0,0)" d="M 544.49 1389.42 C 598.443 1387.98 652.804 1389.34 706.798 1389.33 L 772.19 1389.43 C 785.401 1389.5 798.976 1389.03 812.1 1390.6 C 823.723 1391.98 834.295 1397.51 841.415 1406.97 C 847.693 1415.31 850.738 1426.4 849.139 1436.75 C 847.645 1446.43 842.503 1455.16 834.46 1460.8 C 828.708 1464.83 822.086 1467.17 815.205 1468.37 C 800.894 1470.88 742.331 1471.66 728.403 1469.47 C 727.239 1492.6 728.146 1516.23 728.093 1539.4 A 12858.6 12858.6 0 0 0 728.177 1675.92 C 728.378 1698.64 733.423 1734.04 716.155 1751.11 C 706.248 1760.9 692.051 1762.98 678.698 1763.06 C 663.897 1763.15 649.057 1760.6 638.293 1749.46 C 632.541 1743.51 630.847 1737.82 629.689 1729.82 C 627.974 1717.96 628.607 1705.58 628.611 1693.62 L 628.624 1641.6 L 628.171 1470.03 A 1867.84 1867.84 0 0 0 573.51 1469.65 C 562.366 1469.63 550.002 1470.34 539.069 1468.22 C 532.672 1466.98 526.58 1464.44 521.459 1460.37 C 513.131 1453.76 508.559 1444.03 507.626 1433.55 C 506.652 1422.59 509.108 1411.48 516.312 1402.95 C 523.745 1394.15 533.322 1390.43 544.49 1389.42 z"/>
<path transform="translate(0,0)" fill="rgb(0,0,0)" d="M 958.924 1389.39 C 965.696 1389.39 972.357 1390.02 978.801 1392.21 C 992.047 1396.72 999.487 1406.07 1005.46 1418.15 C 1011.81 1430.99 1015.91 1445.37 1021.08 1458.77 L 1057.78 1555.43 A 6012.5 6012.5 0 0 1 1097.27 1660.4 C 1103.67 1677.41 1111.8 1694.76 1116.5 1712.29 C 1118.66 1720.34 1119.62 1728.08 1116.71 1736.11 C 1112.87 1746.73 1103.77 1755.5 1093.46 1759.85 C 1081.42 1764.93 1065.42 1764.38 1053.58 1759.07 C 1047.71 1756.45 1040.68 1751.58 1037.23 1746.05 C 1028.96 1732.84 1019 1699.57 1013 1683.61 L 960.502 1546.29 C 959.731 1543.75 960.381 1544.84 958.598 1542.99 C 956.224 1544.54 955.681 1546.4 954.619 1549.02 C 949.311 1562.11 945.803 1576.19 941.01 1589.53 L 902.067 1697.48 C 897.112 1711.53 891.445 1734.46 883.572 1746.53 A 38.967 38.967 0 0 1 859.029 1763.12 C 845.899 1765.75 833.592 1764.56 822.41 1756.81 C 813.473 1750.61 807.878 1742.31 806.129 1731.51 C 804.923 1724.06 805.904 1718.05 808.092 1710.94 C 819.872 1672.68 836.751 1635.44 850.44 1597.77 L 888.536 1494.52 C 896.861 1471.31 903.864 1447.48 913.223 1424.66 C 915.57 1418.94 918.306 1413.46 922.137 1408.56 C 931.253 1396.92 944.464 1390.86 958.924 1389.39 z"/>
<path transform="translate(0,0)" fill="rgb(0,0,0)" d="M 1202.56 1389.51 C 1211.61 1389.4 1221.62 1388.52 1230.55 1390.01 C 1236.34 1390.98 1240.39 1392.6 1244.56 1396.73 C 1255.26 1407.36 1262.76 1423.09 1270.98 1435.78 C 1287.12 1460.74 1303.25 1486.18 1320.95 1510.05 C 1338.19 1485.75 1354.11 1460.59 1370.23 1435.54 C 1377.78 1423.8 1384.88 1410.84 1393.59 1399.95 C 1396.6 1396.19 1399.51 1392.8 1404.21 1391.31 C 1415.86 1387.6 1459.33 1387.82 1469.87 1393.7 C 1477.74 1398.09 1484.44 1406.33 1486.61 1415.1 C 1488.6 1423.15 1487.48 1432.67 1483.85 1440.11 C 1477.54 1453.08 1465.83 1464.85 1456.78 1476.08 A 6049.95 6049.95 0 0 0 1413.36 1531.1 C 1403 1544.33 1391.71 1557.4 1383.36 1572.02 A 8568.97 8568.97 0 0 0 1446.5 1654.12 C 1457.49 1668.26 1475.34 1687.61 1482.95 1703.47 C 1486.55 1710.99 1488.14 1720.24 1487.19 1728.52 C 1486.05 1738.47 1481.01 1746.52 1473.16 1752.6 C 1459.45 1763.21 1444.67 1762.84 1428.45 1760.71 A 98.6533 98.6533 0 0 1 1421.69 1759.55 C 1412 1757.6 1402.97 1753.28 1395.8 1746.41 C 1385.03 1736.1 1377.82 1721.58 1369.48 1709.34 A 5178.86 5178.86 0 0 1 1318.54 1634.64 A 111.415 111.415 0 0 1 1317.07 1637.1 C 1308.7 1650.81 1298.43 1663.7 1289.54 1677.12 C 1282.04 1688.43 1274.29 1699.58 1266.98 1711 C 1259.09 1723.32 1251.94 1737.3 1241.4 1747.61 C 1234.56 1754.29 1226.7 1758.52 1217.4 1760.68 C 1201.56 1764.35 1182.83 1762.91 1168.94 1753.94 C 1160.79 1748.67 1155.07 1741.02 1153.41 1731.35 C 1151.92 1722.65 1153.74 1713.55 1157.89 1705.81 C 1166.4 1689.97 1184.06 1672.13 1195.7 1657.86 C 1218.22 1630.24 1241.71 1601.07 1262.78 1572.38 C 1240.01 1541.62 1215.22 1511.91 1191.03 1482.24 C 1179.73 1468.38 1166.06 1454.8 1156.94 1439.43 A 37.611 37.611 0 0 1 1151.79 1420.89 C 1151.63 1413.02 1154.19 1405.76 1159.89 1400.23 C 1171.85 1388.63 1187.2 1389.44 1202.56 1389.51 z"/>
<path transform="translate(0,0)" fill="rgb(0,0,0)" d="M 1017.56 762.404 C 1032.46 761.784 1047.84 764.058 1060.76 771.932 C 1078.07 782.483 1085.25 800.544 1085.05 820.126 C 1084.99 826.627 1083.97 834.077 1085.56 840.37 C 1086.97 841.824 1087.34 842.332 1089.43 842.659 C 1094.39 843.431 1100.5 842.741 1105.56 842.677 C 1122.62 842.46 1141.54 840.581 1158.29 843.58 C 1173.74 846.345 1186 855.356 1194.7 868.154 C 1204.77 882.972 1208.39 900.144 1204.81 917.738 C 1202.39 929.607 1195.92 945.65 1185.13 952.057 C 1179.37 955.472 1172.67 957.253 1166.09 958.24 C 1134.41 962.995 974.391 953.902 963.381 963.08 C 959.279 966.499 957.484 972.988 957.724 978.122 C 957.97 983.388 960.106 989.276 965.183 991.65 C 980.349 998.738 1074.11 991.13 1104.82 998.039 C 1126.85 1002.99 1146.67 1014.13 1163.33 1029.22 A 139.648 139.648 0 0 1 1208.81 1127.47 A 138.206 138.206 0 0 1 1171.95 1227.03 C 1148.85 1251.8 1117.8 1267.46 1083.8 1268.52 C 1084.32 1288.9 1084.16 1307.49 1070.58 1324.18 C 1058.69 1338.78 1042.15 1344.8 1023.95 1346.77 A 96.3813 96.3813 0 0 1 1019.39 1346.6 C 1003.2 1345.56 987.207 1338.44 976.519 1326.06 C 961.706 1308.91 960.628 1288.91 962.019 1267.32 C 940.216 1267.26 893.562 1269.97 874.511 1265.45 C 865.748 1263.37 857.529 1259.47 851.049 1253.11 C 840.885 1243.14 838.387 1230.25 838.133 1216.59 C 837.782 1197.75 840.375 1181.08 854.12 1167.01 C 861.449 1159.51 871.001 1153.04 881.337 1150.8 C 898.895 1146.99 924.7 1149.69 943.071 1149.74 C 984.652 1149.85 1026.44 1150.12 1068 1149.47 C 1075.1 1149.36 1084.09 1149.59 1089.2 1143.86 C 1092.74 1139.89 1093.7 1133.92 1093.13 1128.79 C 1092.45 1122.7 1088.76 1117.72 1082.82 1115.87 C 1073.61 1113.01 1060.28 1114.6 1050.48 1114.56 C 997.411 1114.34 939.539 1121.32 894.531 1087.02 C 866.366 1065.56 845.973 1032.58 841.561 997.277 C 836.881 959.821 846.099 921.399 869.579 891.6 C 893.163 861.669 924.576 847.221 961.908 842.702 C 960.355 821.515 960.364 797.276 974.989 780.192 C 986.323 766.952 1001.14 763.895 1017.56 762.404 z"/>
</svg>