<?xml version="1.0" encoding="UTF-8"?>
<svg version="1.1" xmlns="http://www.w3.org/2000/svg" width="512" height="512">
<path d="M0 0 C2.39420971 2.20563678 4.72486452 4.47400782 7.0534668 6.74853516 C8.30836914 7.910625 8.30836914 7.910625 9.58862305 9.09619141 C31.49029404 29.88715959 45.92257748 58.39071294 52.0534668 87.74853516 C52.44622803 89.60067627 52.44622803 89.60067627 52.84692383 91.49023438 C54.79229275 101.1822675 55.47288243 110.50584616 55.3347168 120.38037109 C55.3031833 122.64388506 55.29368113 124.90669651 55.2878418 127.17041016 C55.14648416 154.27785938 47.82615456 177.97513127 35.0534668 201.74853516 C34.52366211 202.77076172 33.99385742 203.79298828 33.44799805 204.84619141 C28.44815582 214.01874146 21.81279288 221.84014441 15.0534668 229.74853516 C14.59504395 230.28961914 14.13662109 230.83070313 13.66430664 231.38818359 C7.72540842 238.35258416 1.29398091 244.17043507 -5.9465332 249.74853516 C-7.29811523 250.84101562 -7.29811523 250.84101562 -8.67700195 251.95556641 C-39.75832009 276.43478386 -81.25711161 286.46331671 -120.28344727 281.92871094 C-164.22593106 276.13384399 -199.81451503 252.87507678 -228.9152832 220.29150391 C-229.9465332 218.74853516 -229.9465332 218.74853516 -229.9465332 215.74853516 C-229.26550537 215.72871582 -228.58447754 215.70889648 -227.8828125 215.68847656 C-224.79949404 215.59326533 -221.71685672 215.4835705 -218.6340332 215.37353516 C-217.02625 215.32712891 -217.02625 215.32712891 -215.38598633 215.27978516 C-214.35795898 215.24111328 -213.32993164 215.20244141 -212.27075195 215.16259766 C-211.32288818 215.13117676 -210.37502441 215.09975586 -209.3984375 215.06738281 C-206.6935063 214.89963006 -206.6935063 214.89963006 -203.9465332 212.74853516 C-201.8840332 212.87353516 -201.8840332 212.87353516 -199.9465332 213.74853516 C-199.26282871 215.07321262 -198.59689135 216.40717148 -197.9465332 217.74853516 C-197.01454102 218.21453125 -197.01454102 218.21453125 -196.0637207 218.68994141 C-193.82141861 219.81109245 -192.72498772 220.88951602 -191.0715332 222.74853516 C-173.00746644 241.15559053 -146.93006844 251.3913063 -121.9465332 255.74853516 C-120.36678711 256.02503906 -120.36678711 256.02503906 -118.75512695 256.30712891 C-82.43919444 260.51605237 -47.70044718 250.05096772 -18.8840332 227.99853516 C7.95599191 205.74956697 25.75093992 174.48599787 30.0534668 139.74853516 C30.97584351 121.55799405 30.89132979 103.41051154 26.0534668 85.74853516 C25.87154785 85.06742676 25.68962891 84.38631836 25.50219727 83.68457031 C16.48115956 51.01051684 -6.79940701 21.22476521 -36.04418945 4.34619141 C-65.99709775 -12.37619566 -101.80859124 -18.74875337 -135.38305664 -9.9921875 C-160.24826317 -2.80732687 -180.6205117 9.79458975 -198.5715332 28.43603516 C-201.56454944 31.2930052 -204.27564909 30.86416977 -208.2668457 30.84619141 C-209.52368164 30.84296875 -210.78051758 30.83974609 -212.07543945 30.83642578 C-213.39415039 30.82804687 -214.71286133 30.81966797 -216.0715332 30.81103516 C-217.41137532 30.80602005 -218.75121921 30.80145716 -220.09106445 30.79736328 C-223.37626527 30.78554601 -226.66137718 30.76907133 -229.9465332 30.74853516 C-229.9465332 21.7808055 -215.76019161 10.59771019 -209.66918945 4.34619141 C-186.62954529 -18.52692341 -154.18140471 -33.90633667 -121.9465332 -37.25146484 C-120.48086914 -37.41582031 -120.48086914 -37.41582031 -118.9855957 -37.58349609 C-76.23684792 -41.79105001 -32.19646804 -28.72573627 0 0 Z " fill="#030403" transform="translate(456.946533203125,125.25146484375)"/>
<path d="M0 0 C2.91025796 0.04198593 4.37575548 0.18639134 6.70117188 1.97607422 C8.48868047 4.0680544 10.05628157 6.22455311 11.609375 8.49609375 C12.81635826 10.15237872 14.0233907 11.80862786 15.23046875 13.46484375 C15.8322998 14.31304687 16.43413086 15.16125 17.05419922 16.03515625 C19.83677716 19.92489463 22.75593951 23.70598618 25.671875 27.49609375 C26.16204102 28.14376709 26.65220703 28.79144043 27.15722656 29.45874023 C31.57485485 35.28124468 36.20883403 40.92127969 40.859375 46.55859375 C40.8687207 45.34276611 40.87806641 44.12693848 40.88769531 42.87426758 C40.92762918 38.3545292 40.99339754 33.83546907 41.06689453 29.31616211 C41.09508444 27.36182379 41.11630883 25.40737189 41.13037109 23.45288086 C41.15182807 20.63987152 41.19849195 17.82822504 41.25 15.015625 C41.25184296 13.70909721 41.25184296 13.70909721 41.25372314 12.37617493 C41.3528396 8.25203451 41.5357165 6.07586016 43.77026367 2.50463867 C45.859375 0.55859375 45.859375 0.55859375 47.89453125 -0.03515625 C53.35568224 0.21738252 53.35568224 0.21738252 55.796875 1.87109375 C58.05445727 5.4566656 57.99566152 8.66385857 58.02050781 12.78662109 C58.03011536 14.07160492 58.0397229 15.35658875 58.04962158 16.68051147 C58.05446948 18.08518293 58.05874833 19.48985644 58.0625 20.89453125 C58.06825378 22.33558148 58.07401149 23.77663169 58.07977295 25.21768188 C58.09027428 28.23887488 58.09612267 31.26004133 58.09960938 34.28125 C58.10509337 38.14716443 58.12912266 42.01272654 58.15758133 45.8785305 C58.17623066 48.85542823 58.18141451 51.83224145 58.18294525 54.80919266 C58.18596697 56.23411613 58.19397932 57.65903828 58.20713043 59.08390427 C58.2242375 61.07979075 58.22045913 63.07582294 58.21582031 65.07177734 C58.22128876 66.77362686 58.22128876 66.77362686 58.22686768 68.50985718 C57.81219425 71.95000751 56.93783412 73.80786347 54.859375 76.55859375 C52.046875 78.05859375 52.046875 78.05859375 48.859375 78.55859375 C43.64500322 76.61473271 40.82467496 73.55485645 37.609375 69.18359375 C37.13612793 68.56073486 36.66288086 67.93787598 36.17529297 67.29614258 C35.19846002 66.00938747 34.22628508 64.71908304 33.25878906 63.42529297 C31.19726991 60.67540193 29.08845016 57.96357192 26.984375 55.24609375 C25.27466948 53.0179614 23.56618029 50.78894455 21.859375 48.55859375 C21.01729492 47.45837891 21.01729492 47.45837891 20.15820312 46.3359375 C16.38995586 41.41166175 12.62425019 36.48544785 8.859375 31.55859375 C8.8500293 32.80995117 8.84068359 34.06130859 8.83105469 35.35058594 C8.79117018 39.99515325 8.72541559 44.6390571 8.65185547 49.28320312 C8.62363693 51.29288202 8.60242679 53.30267209 8.58837891 55.3125 C8.56696165 58.20240224 8.52031797 61.09096665 8.46875 63.98046875 C8.46690704 65.32754913 8.46690704 65.32754913 8.46502686 66.70184326 C8.31869021 72.93990971 8.31869021 72.93990971 5.97363281 76.09863281 C3.44998385 77.8412911 1.93629976 78.4835468 -1.140625 78.55859375 C-5.73763993 76.3645639 -5.73763993 76.3645639 -7.140625 73.55859375 C-7.29841433 71.13978277 -7.39946136 68.74586144 -7.45703125 66.32421875 C-7.47799362 65.58637146 -7.49895599 64.84852417 -7.52055359 64.08831787 C-7.58727733 61.66185613 -7.64604138 59.23530046 -7.703125 56.80859375 C-7.72330688 55.98423828 -7.74348877 55.15988281 -7.76428223 54.31054688 C-7.90744482 48.39354218 -8.0282662 42.47625473 -8.140625 36.55859375 C-8.15607361 35.78491455 -8.17152222 35.01123535 -8.18743896 34.21411133 C-8.28349296 29.328929 -8.34646767 24.44452654 -8.390625 19.55859375 C-8.4119751 18.3149707 -8.4333252 17.07134766 -8.45532227 15.79003906 C-8.45975342 14.64116211 -8.46418457 13.49228516 -8.46875 12.30859375 C-8.4780957 11.3134375 -8.48744141 10.31828125 -8.49707031 9.29296875 C-7.77187372 3.72981678 -5.50595548 0.43324217 0 0 Z " fill="#030303" transform="translate(212.140625,159.44140625)"/>
<path d="M0 0 C4.08929846 1.16106867 5.92828875 4.28000669 8.1875 7.62109375 C8.98892024 8.73542999 9.79390773 9.84720541 10.6015625 10.95703125 C12.32462662 13.33408884 14.03253816 15.72049947 15.72265625 18.12109375 C16.12500488 18.68957031 16.52735352 19.25804687 16.94189453 19.84375 C17.81817987 21.09411403 18.68272606 22.35274685 19.53857422 23.6171875 C20.70677759 25.31919432 21.94218228 26.97467032 23.1875 28.62109375 C23.8475 28.62109375 24.5075 28.62109375 25.1875 28.62109375 C26.97969866 26.2164097 28.65899141 23.80634002 30.3125 21.30859375 C31.30232549 19.84173213 32.29321784 18.37558988 33.28515625 16.91015625 C33.77516113 16.18344727 34.26516602 15.45673828 34.77001953 14.70800781 C36.72160526 11.83474657 38.72229665 9.00377565 40.75 6.18359375 C41.37003906 5.31863281 41.99007812 4.45367187 42.62890625 3.5625 C44.1875 1.62109375 44.1875 1.62109375 46.1875 0.62109375 C51.97301532 0.06120517 51.97301532 0.06120517 54.1875 0.62109375 C57.39324575 4.01015376 58.7005289 6.25246002 58.921875 10.90234375 C58.97666016 12.04574219 59.03144531 13.18914062 59.08789062 14.3671875 C59.12542122 15.78504831 59.15814294 17.20304016 59.1875 18.62109375 C59.21638306 19.91781006 59.21638306 19.91781006 59.24584961 21.24072266 C59.36943212 27.43894226 59.41656769 33.63559168 59.42773438 39.83496094 C59.4375607 43.14152072 59.4687244 46.44748845 59.5 49.75390625 C59.50652067 51.86588177 59.5117748 53.97786167 59.515625 56.08984375 C59.5279718 57.07319702 59.5403186 58.05655029 59.55303955 59.06970215 C59.52475452 67.72795751 59.52475452 67.72795751 56.1875 71.62109375 C53.3125 73.12109375 53.3125 73.12109375 50.1875 73.62109375 C46.62303279 72.081892 45.35902227 70.87837716 43.1875 67.62109375 C42.94676865 64.86890398 42.81467312 62.20891909 42.7734375 59.453125 C42.75407135 58.65831223 42.7347052 57.86349945 42.7147522 57.04460144 C42.65500558 54.5077078 42.60859117 51.97076866 42.5625 49.43359375 C42.52431565 47.71287091 42.48526365 45.9921671 42.4453125 44.27148438 C42.34930821 40.0548421 42.26525924 35.83811035 42.1875 31.62109375 C41.83445801 32.12560059 41.48141602 32.63010742 41.11767578 33.14990234 C39.5180071 35.43341492 37.91529283 37.71477306 36.3125 39.99609375 C35.75691406 40.79015625 35.20132813 41.58421875 34.62890625 42.40234375 C34.09394531 43.16289062 33.55898437 43.9234375 33.0078125 44.70703125 C32.51555176 45.40876465 32.02329102 46.11049805 31.51611328 46.83349609 C29.1507896 50.01594739 28.54817624 50.56699231 24.4375 51.18359375 C20.68091316 51.04870733 20.23470546 50.66428172 17.25 47.93359375 C16.19540815 46.52067373 15.18064379 45.07786153 14.1875 43.62109375 C13.40979005 42.51236377 12.63106628 41.40434454 11.8515625 40.296875 C10.23062535 37.98193519 8.62961361 35.65496338 7.04296875 33.31640625 C5.43948421 30.81258307 5.43948421 30.81258307 4.1875 29.62109375 C4.17291748 30.78157227 4.15833496 31.94205078 4.14331055 33.13769531 C4.08530059 37.44676393 4.00806793 41.75531145 3.92504883 46.06396484 C3.89181216 47.92813657 3.86377627 49.79240862 3.84106445 51.65673828 C3.80749512 54.33799966 3.75517891 57.01834271 3.69921875 59.69921875 C3.68963387 60.94786713 3.68963387 60.94786713 3.67985535 62.22174072 C3.59170048 65.69779189 3.51118413 68.02386469 1.83520508 71.11621094 C-0.65887329 73.39410382 -2.46970084 73.62109375 -5.8125 73.62109375 C-9.18795234 71.52081229 -10.54650961 70.41906491 -11.8125 66.62109375 C-11.92595734 64.70564906 -11.98167127 62.78657551 -12.00537109 60.86791992 C-12.02946548 59.09544136 -12.02946548 59.09544136 -12.05404663 57.28715515 C-12.09850332 51.88796526 -12.13999036 46.48892007 -12.16259766 41.08959961 C-12.17593297 38.24063988 -12.20378036 35.39239712 -12.24462891 32.54370117 C-12.30349556 28.43786578 -12.32126457 24.33279794 -12.3359375 20.2265625 C-12.35860687 18.95451462 -12.38127625 17.68246674 -12.40463257 16.37187195 C-12.38106651 6.5229658 -12.38106651 6.5229658 -9.42016602 2.82275391 C-5.99660101 -0.06777219 -4.33202677 -0.34912716 0 0 Z " fill="#050505" transform="translate(157.8125,256.37890625)"/>
<path d="M0 0 C4.73401382 2.79513498 7.61697279 6.25882006 9.875 11.3125 C11.34847519 17.8761622 10.65882432 22.40351738 7.5625 28.375 C5.35952194 31.4729379 3.73735565 33.25842956 0.5625 35.375 C2.00503657 38.74091866 3.89514727 40.88547079 6.5625 43.375 C7.01625 42.59125 7.47 41.8075 7.9375 41 C9.5625 38.375 9.5625 38.375 11.5625 36.375 C18.61387615 36.59885321 18.61387615 36.59885321 21.625 39.0625 C22.95014296 42.33118596 22.54094664 43.98305166 21.5625 47.375 C20.53755319 49.4408461 19.46522536 51.45238887 18.3046875 53.4453125 C17.36423416 55.89049119 17.59355075 56.96479961 18.5625 59.375 C19.8309375 60.7671875 19.8309375 60.7671875 21.125 62.1875 C23.32958222 64.71892435 23.57350505 65.44592143 24.125 69 C23.5625 72.375 23.5625 72.375 21.9375 74.8125 C18.78556429 76.88614192 17.27693562 77.04359841 13.5625 76.375 C10.5354815 74.43110897 8.09965458 71.91215458 5.5625 69.375 C5.08941406 69.71273437 4.61632812 70.05046875 4.12890625 70.3984375 C-5.04002316 76.58254974 -13.58534722 77.23183222 -24.4375 75.375 C-32.00365509 73.18644274 -36.8894231 67.58486618 -40.875 61 C-42.37950582 53.97897285 -42.05800999 47.68169482 -38.4375 41.375 C-35.43200871 37.48846634 -32.5397294 34.1098196 -28.4375 31.375 C-28.66566406 30.68535156 -28.89382813 29.99570313 -29.12890625 29.28515625 C-31.31120584 22.15109168 -32.5854402 16.18433223 -29.45703125 9.1796875 C-23.47367031 -1.31539868 -11.11911232 -5.11394288 0 0 Z M-15.375 14 C-16.82927282 17.25072748 -16.51137226 19.01020026 -15.4375 22.375 C-13.50045292 24.26790509 -13.50045292 24.26790509 -11.4375 25.375 C-7.75909111 23.10192336 -7.75909111 23.10192336 -4.4375 20.375 C-4.68998627 16.85754713 -4.68998627 16.85754713 -5.4375 13.375 C-8.97639651 11.60555174 -12.28539679 11.40871989 -15.375 14 Z M-23.90625 45.81640625 C-25.75547718 47.46539353 -25.75547718 47.46539353 -26.5625 50.875 C-26.42360593 54.76403405 -25.90379843 56.39843293 -23.4375 59.375 C-19.21470734 61.92477947 -15.25132432 62.06961223 -10.4375 61.375 C-7.82411486 60.27814127 -5.79876671 58.98267095 -3.4375 57.375 C-4.85352213 54.22593585 -6.57485082 51.87976328 -8.875 49.3125 C-9.77025391 48.30509766 -9.77025391 48.30509766 -10.68359375 47.27734375 C-11.26238281 46.64957031 -11.84117187 46.02179688 -12.4375 45.375 C-12.94410156 44.79878906 -13.45070313 44.22257812 -13.97265625 43.62890625 C-17.5367455 40.57804586 -20.8319712 43.51721045 -23.90625 45.81640625 Z " fill="#050505" transform="translate(418.4375,160.625)"/>
<path d="M0 0 C2.02374429 1.44886107 3.86970171 2.98409147 5.72265625 4.64453125 C6.33882813 5.15757812 6.955 5.670625 7.58984375 6.19921875 C14.85764037 12.71840112 18.27855675 21.49339055 18.875 31.09765625 C19.31509318 43.70192506 14.88704871 53.24444696 6.72265625 62.64453125 C3.23944866 65.2947979 -0.47812636 67.47737204 -4.27734375 69.64453125 C-5.21707031 70.19560547 -5.21707031 70.19560547 -6.17578125 70.7578125 C-14.44428797 74.70499557 -26.81595775 73.86479487 -35.33984375 71.01953125 C-40.23631443 68.90834495 -44.28411867 66.15449979 -48.27734375 62.64453125 C-48.89480469 62.13148438 -49.51226562 61.6184375 -50.1484375 61.08984375 C-57.47968412 54.49960486 -60.87782356 45.66174484 -61.4296875 35.96875 C-61.822128 23.61472296 -58.6362223 14.88031415 -50.27734375 5.64453125 C-36.24429784 -6.56488587 -16.40577705 -9.76467348 0 0 Z M-42.08984375 19.703125 C-46.24312307 26.49319021 -47.07554228 32.91477505 -45.27734375 40.64453125 C-43.19115208 47.31797393 -39.30172562 51.22787651 -33.27734375 54.64453125 C-26.57180708 57.69773953 -20.32858004 58.84661459 -13.21484375 56.39453125 C-6.38142987 53.51106759 -2.07347672 50.14778197 1.578125 43.625 C4.02589141 37.25078235 3.99481588 30.38049371 1.796875 23.92578125 C-1.67834231 17.13382559 -6.71871122 12.56075683 -14.015625 10.15625 C-24.92171109 7.68872448 -35.19379264 10.63246687 -42.08984375 19.703125 Z " fill="#020202" transform="translate(113.27734375,164.35546875)"/>
<path d="M0 0 C0.62261719 0.32355469 1.24523437 0.64710938 1.88671875 0.98046875 C5.34640401 3.03282441 7.46189322 5.29044836 9 9 C9 12.58051616 8.24863354 13.73005501 5.8125 16.375 C3 18 3 18 0.0625 18 C-3.4539018 16.85178717 -5.93904958 15.06145641 -9 13 C-17.27626469 9.9904492 -24.06098678 10.53723891 -32 14 C-37.62948615 16.76970719 -40.56756875 20.5574463 -43.11328125 26.2578125 C-45.30516429 33.03623493 -44.8237718 38.92216819 -41.875 45.375 C-38.1315184 52.01021598 -33.35198654 55.67187093 -26 58 C-19.71879901 58.75045446 -13.46034435 58.42963777 -8 55 C-4.47737336 51.72313801 -1.53336234 48.60008701 0 44 C-0.55461914 44.01571045 -1.10923828 44.0314209 -1.68066406 44.04760742 C-4.20367152 44.11012862 -6.72651576 44.14904342 -9.25 44.1875 C-10.12269531 44.21263672 -10.99539063 44.23777344 -11.89453125 44.26367188 C-18.32935829 44.3373531 -18.32935829 44.3373531 -21.578125 42.703125 C-23 41 -23 41 -23.5 37.5625 C-22.91477639 33.39278176 -22.30086176 32.49813152 -19 30 C-15.87133789 29.48242188 -15.87133789 29.48242188 -12.22265625 29.46875 C-10.90458984 29.46359375 -9.58652344 29.4584375 -8.22851562 29.453125 C-7.20238159 29.46569336 -7.20238159 29.46569336 -6.15551758 29.47851562 C-4.07188996 29.49990361 -1.99172284 29.47872288 0.09179688 29.453125 C1.41115234 29.45828125 2.73050781 29.4634375 4.08984375 29.46875 C5.29503662 29.47326172 6.50022949 29.47777344 7.74194336 29.48242188 C11.60166885 30.09558171 13.27814658 31.23900593 16 34 C17.79419773 42.15651729 15.77175764 50.63298617 11.37109375 57.56640625 C4.01229664 67.54166455 -4.90632969 71.97877376 -17 74 C-27.28530299 75.36631331 -37.23100681 71.63429991 -45.59375 65.87890625 C-52.85805297 60.20661773 -57.10099628 52.69701117 -60 44 C-60.81952806 30.78007192 -60.64440629 19.99155572 -51.5625 9.5625 C-47.49004077 5.26339956 -43.29383115 1.42144857 -37.9375 -1.1875 C-37.28652344 -1.51105469 -36.63554687 -1.83460938 -35.96484375 -2.16796875 C-25.31148286 -6.6792329 -10.00366477 -5.24516477 0 0 Z " fill="#030303" transform="translate(336,164)"/>
<path d="M0 0 C7.53518963 6.26626996 13.85905096 13.29725177 14.91064453 23.39208984 C15.7378029 35.9757875 14.85446075 45.51551089 6.625 55.5 C-0.43117847 62.85693361 -9.06309831 67.54366293 -19.3125 68.25 C-31.95996727 68.3592991 -40.89999062 65.48444782 -50.05078125 56.6640625 C-57.54613699 48.66383824 -60.54247545 40.56523321 -61.6875 29.6875 C-60.31142127 17.073445 -55.34066728 8.15169052 -45.68359375 -0.0234375 C-32.35988583 -9.72537967 -13.41652106 -9.44316674 0 0 Z M-40.3125 16.1875 C-44.80370199 21.61796779 -45.77914128 26.55184615 -45.62109375 33.46875 C-44.96878464 39.34778908 -42.40140674 43.49802258 -38.1875 47.5625 C-32.81129019 51.76697177 -26.49191153 53.63714755 -19.6875 53.25 C-13.46195171 52.22707422 -8.57330489 48.92998975 -4.4375 44.25 C-0.1035622 38.13149958 0.52269386 32.60176816 -0.3125 25.25 C-2.36800238 18.66128156 -6.37856833 13.92653238 -12.375 10.5 C-22.44253543 6.21594237 -32.83669759 7.94854276 -40.3125 16.1875 Z " fill="#050505" transform="translate(126.3125,262.75)"/>
<path d="M0 0 C6.59208647 1.21079139 10.81500054 8.93773414 14.6875 14 C15.92545459 15.60572064 17.16374007 17.21118624 18.40234375 18.81640625 C19.01577637 19.61320801 19.62920898 20.41000977 20.26123047 21.23095703 C23.34626037 25.22418494 26.47260858 29.18469983 29.59814453 33.14624023 C31.78848433 35.9264832 33.94464103 38.72679351 36.0625 41.5625 C36.0718457 40.46260742 36.08119141 39.36271484 36.09082031 38.22949219 C36.13072937 34.14395834 36.19649004 30.05917681 36.27001953 25.97412109 C36.29822397 24.20696689 36.31944118 22.43968666 36.33349609 20.67236328 C36.35493358 18.12987778 36.40158503 15.58890662 36.453125 13.046875 C36.45435364 12.25819031 36.45558228 11.46950562 36.45684814 10.65692139 C36.55177835 7.09214182 36.76315595 4.96673294 38.91308594 2.06347656 C41.85792796 0.00703759 43.54516305 -0.02372282 47.0625 0.5625 C49.66133111 2.45894432 50.83575342 3.70709515 51.66363525 6.83029175 C52.09679007 9.79738565 52.16319708 12.59170415 52.13183594 15.59033203 C52.12142273 16.78151642 52.11100952 17.97270081 52.10028076 19.19998169 C52.08265686 20.47719086 52.06503296 21.75440002 52.046875 23.0703125 C52.02213104 25.04667191 52.02213104 25.04667191 51.99688721 27.06295776 C51.96051265 29.84526881 51.91929896 32.62746472 51.87548828 35.40966797 C51.82034583 38.97507055 51.78389572 42.54040636 51.75185776 46.10608101 C51.71732157 49.51103695 51.66196748 52.91558807 51.609375 56.3203125 C51.59984802 57.60157013 51.59032104 58.88282776 51.58050537 60.20291138 C51.55748352 61.38779144 51.53446167 62.57267151 51.51074219 63.79345703 C51.49662292 64.83760773 51.48250366 65.88175842 51.46795654 66.95755005 C51.0625 69.5625 51.0625 69.5625 49.74542236 71.39181519 C46.82439361 73.42375919 44.49073709 73.03536029 41.0625 72.5625 C36.62430397 69.26230295 33.76345199 64.47100126 30.57421875 60 C26.91267904 54.92853073 23.01881161 50.03224325 19.16235352 45.10864258 C15.40215393 40.30361933 11.70303016 35.45887196 8.0625 30.5625 C8.04791748 31.72821533 8.03333496 32.89393066 8.01831055 34.0949707 C7.96036883 38.41706122 7.88313606 42.73862847 7.80004883 47.06030273 C7.76677998 48.93131014 7.73875415 50.80241838 7.71606445 52.67358398 C7.68255412 55.36225383 7.63024135 58.04999798 7.57421875 60.73828125 C7.56463387 61.99467155 7.56463387 61.99467155 7.55485535 63.27644348 C7.40609908 69.1426475 7.40609908 69.1426475 5.65657043 71.28044128 C3.67917039 72.87079946 2.57823311 72.99523535 0.0625 73 C-0.618125 73.01933594 -1.29875 73.03867187 -2 73.05859375 C-4.83218545 72.33341723 -5.45850497 71.04890499 -6.9375 68.5625 C-7.32518005 65.67871094 -7.32518005 65.67871094 -7.34155273 62.296875 C-7.35423691 61.02875977 -7.36692108 59.76064453 -7.37998962 58.45410156 C-7.37793826 57.07356605 -7.3749503 55.69303165 -7.37109375 54.3125 C-7.37565607 52.8929011 -7.38096179 51.47330442 -7.38697815 50.05371094 C-7.39590536 47.08128881 -7.39349034 44.10913543 -7.38354492 41.13671875 C-7.37204811 37.32995246 -7.39227819 33.52411281 -7.42146206 29.71746826 C-7.43981772 26.78688683 -7.43953311 23.85652781 -7.43382454 20.92590332 C-7.43367128 19.52248839 -7.43971932 18.11905843 -7.45211601 16.71569824 C-7.46701124 14.75322564 -7.4537265 12.79060043 -7.43920898 10.828125 C-7.43904282 9.71211914 -7.43887665 8.59611328 -7.43870544 7.44628906 C-6.64304616 2.86829899 -4.51594221 0.86475489 0 0 Z " fill="#060606" transform="translate(346.9375,256.4375)"/>
<path d="M0 0 C2.64482082 2.81978851 3.37476572 4.73406825 3.38476562 8.56567383 C3.39487671 9.46373245 3.40498779 10.36179108 3.41540527 11.2870636 C3.41238403 12.25065292 3.40936279 13.21424225 3.40625 14.20703125 C3.41708618 15.20578781 3.42792236 16.20454437 3.43908691 17.23356628 C3.4733569 20.42660992 3.48893837 23.61929665 3.5 26.8125 C3.5146023 31.00685209 3.54837557 35.20041159 3.59375 39.39453125 C3.59072876 40.35204788 3.58770752 41.30956451 3.58459473 42.2960968 C3.66058612 49.1166648 4.5270918 54.07747213 9.0625 59.4375 C13.3683171 61.72782825 17.22247804 61.64539835 22 61 C26.24997984 59.28192304 28.0080784 57.08343928 30 53 C30.88975476 50.07077594 31.13288563 47.42594028 31.15771484 44.37084961 C31.17310806 43.00439552 31.17310806 43.00439552 31.18881226 41.6103363 C31.19611359 40.63419876 31.20341492 39.65806122 31.2109375 38.65234375 C31.23899051 36.58267417 31.26765486 34.5130128 31.296875 32.44335938 C31.33823951 29.18221126 31.37513097 25.92121913 31.40136719 22.65991211 C31.42888934 19.51123543 31.47474157 16.36325444 31.5234375 13.21484375 C31.52669037 12.23668198 31.52994324 11.2585202 31.53329468 10.25071716 C31.54986115 9.34289993 31.56642761 8.4350827 31.58349609 7.49975586 C31.59158295 6.70129745 31.5996698 5.90283905 31.60800171 5.08018494 C32.09536507 2.49393405 32.94810316 1.59986083 35 0 C36.9375 -0.3984375 36.9375 -0.3984375 39 -0.375 C40.0209375 -0.38660156 40.0209375 -0.38660156 41.0625 -0.3984375 C43.62236081 0.12798549 44.3953185 0.95004285 46 3 C46.38095093 5.3190155 46.38095093 5.3190155 46.38818359 8.07885742 C46.39764008 9.11390915 46.40709656 10.14896088 46.4168396 11.21537781 C46.41076691 12.33410782 46.40469421 13.45283783 46.3984375 14.60546875 C46.40130768 15.7586409 46.40417786 16.91181305 46.40713501 18.09992981 C46.40917846 20.54359426 46.4036291 22.98727495 46.39111328 25.4309082 C46.37513731 29.1554881 46.3909156 32.87897069 46.41015625 36.60351562 C46.40817244 38.97916905 46.40432592 41.35482179 46.3984375 43.73046875 C46.40754654 45.39338203 46.40754654 45.39338203 46.4168396 47.08988953 C46.33139363 56.5847202 44.47036952 63.17036345 37.90234375 70.23828125 C30.76366125 76.84925827 23.21776723 77.46492654 13.8359375 77.2734375 C5.87638309 76.70605582 -0.15633395 73.90829492 -5.53125 67.98828125 C-11.90993753 59.35330265 -12.15568467 49.94152317 -12.16796875 39.61328125 C-12.17129715 38.63385056 -12.17462555 37.65441986 -12.17805481 36.64530945 C-12.18309608 34.58540311 -12.18546401 32.52548867 -12.18530273 30.46557617 C-12.18750021 27.31220214 -12.20571551 24.15917213 -12.22460938 21.00585938 C-12.22754167 19.00000119 -12.22952756 16.99414136 -12.23046875 14.98828125 C-12.23765427 14.0465657 -12.24483978 13.10485016 -12.25224304 12.13459778 C-12.24916641 11.25655991 -12.24608978 10.37852203 -12.24291992 9.47387695 C-12.24434494 8.70445267 -12.24576996 7.93502838 -12.24723816 7.14228821 C-11.96453372 4.69268904 -11.27505433 3.10033947 -10 1 C-6.62069707 -1.5344772 -3.94734591 -1.17580516 0 0 Z " fill="#010101" transform="translate(149,160)"/>
<path d="M0 0 C4.14735084 0.59247869 4.85321735 1.37506552 7.5 4.5 C9.00463867 7.11523438 9.00463867 7.11523438 10.41796875 10.09375 C10.94583984 11.19702637 11.47371094 12.30030273 12.01757812 13.43701172 C12.56865234 14.61279785 13.11972656 15.78858398 13.6875 17 C14.26581339 18.22043418 14.8445937 19.44064721 15.42382812 20.66064453 C20.25994567 30.87585917 24.99790507 41.132988 29.5 51.5 C29.94158447 52.49386719 29.94158447 52.49386719 30.39208984 53.5078125 C31.17815091 55.28778071 31.93395024 57.08102631 32.6875 58.875 C33.29658203 60.30972656 33.29658203 60.30972656 33.91796875 61.7734375 C34.66932262 65.29320263 33.95149311 67.24902175 32.5 70.5 C29.85491041 73.14508959 28.20028236 73.28233633 24.5 73.5 C19.5 70.5 19.5 70.5 15.5 59.5 C5.27 59.5 -4.96 59.5 -15.5 59.5 C-17.48 63.46 -19.46 67.42 -21.5 71.5 C-22.5 72.5 -22.5 72.5 -26.375 72.75 C-28.86195054 72.69651719 -30.25879953 72.62060023 -32.5 71.5 C-34.17770844 68.14458311 -34.09150537 65.11299731 -33.5 61.5 C-31.73614038 56.7414135 -29.49379763 52.23224467 -27.25 47.6875 C-25.95986403 45.01993685 -24.67967782 42.34762581 -23.3984375 39.67578125 C-22.90937424 38.66197388 -22.90937424 38.66197388 -22.41043091 37.62768555 C-20.19298776 33.01332758 -18.08026869 28.3627804 -16.0390625 23.66796875 C-15.76884277 23.04796494 -15.49862305 22.42796112 -15.22021484 21.78916931 C-13.93824492 18.84109257 -12.66796309 15.88847706 -11.40917969 12.93041992 C-10.7232373 11.35224487 -10.7232373 11.35224487 -10.0234375 9.7421875 C-9.63075684 8.8229248 -9.23807617 7.90366211 -8.83349609 6.95654297 C-6.54928345 2.74860675 -4.81053199 0.68721886 0 0 Z M-0.5 24.5 C-1.83620809 27.64462004 -3.16848288 30.79089113 -4.5 33.9375 C-5.07234375 35.28424805 -5.07234375 35.28424805 -5.65625 36.65820312 C-6.0171875 37.51220703 -6.378125 38.36621094 -6.75 39.24609375 C-7.25273437 40.43223267 -7.25273437 40.43223267 -7.765625 41.64233398 C-8.56127279 43.32206892 -8.56127279 43.32206892 -8.5 44.5 C-2.56 44.5 3.38 44.5 9.5 44.5 C7.33836487 37.56001352 4.6063786 31.06882431 1.5 24.5 C0.84 24.5 0.18 24.5 -0.5 24.5 Z " fill="#050505" transform="translate(302.5,256.5)"/>
<path d="M0 0 C1.7015625 0.9590625 1.7015625 0.9590625 3.4375 1.9375 C6.23829782 4.19180068 7.74239078 5.62017521 9 9 C8.07843137 15.04139434 8.07843137 15.04139434 5.3125 17.5 C1.94065662 18.22904722 -0.6554043 17.776424 -4 17 C-5.36733028 16.04701223 -6.70264493 15.04625409 -8 14 C-14.02381354 11.27494149 -20.46451908 10.77423154 -26.7265625 12.9453125 C-33.40389467 16.07715856 -37.09592345 19.32633588 -39.8125 26.25 C-41.5051986 31.88921135 -41.47029028 36.81060109 -38.984375 42.203125 C-36.00194678 47.29967956 -32.73299948 50.72883745 -27.3125 53.25 C-18.92730052 55.14853573 -12.48743826 54.17626038 -5 50 C-4.113125 49.401875 -3.22625 48.80375 -2.3125 48.1875 C0.85083912 46.56308262 2.65670177 46.95986277 6 48 C8.50031654 51.75047482 8.53603554 53.55856266 8 58 C3.78186304 63.76478719 -3.98365146 68.51852545 -11 70 C-24.74584704 71.08592192 -34.26595015 69.54118418 -45.375 60.75 C-52.15865947 54.362054 -56.67100851 46.03627868 -57.1796875 36.703125 C-57.40647322 24.75907708 -55.02572349 15.84904017 -47.02734375 6.7578125 C-34.66634823 -5.1320743 -15.24421944 -8.74964074 0 0 Z " fill="#040404" transform="translate(57,260)"/>
<path d="M0 0 C1.98192695 -0.01699684 3.96356555 -0.06084052 5.94506836 -0.10522461 C15.63890939 -0.16909685 23.47863142 0.91500663 30.95874023 7.42016602 C36.46766158 13.52816628 38.77956409 20.74594897 38.40795898 28.90844727 C37.3919453 36.38777694 34.24753222 41.88793299 28.20874023 46.48266602 C22.11560169 50.01668637 16.59774884 50.65647191 9.70874023 50.92016602 C8.46157227 50.97817383 8.46157227 50.97817383 7.18920898 51.03735352 C5.15438868 51.13090847 3.11909608 51.21409314 1.08374023 51.29516602 C1.04635742 52.40375977 1.00897461 53.51235352 0.97045898 54.65454102 C0.90478576 56.11811576 0.83833888 57.58165593 0.77124023 59.04516602 C0.73740234 60.13958008 0.73740234 60.13958008 0.70288086 61.25610352 C0.54354143 64.44289206 0.27185975 66.9331354 -1.20922852 69.78344727 C-3.80848533 72.08530628 -5.71395214 71.79222988 -9.04516602 71.62719727 C-10.91625977 71.29516602 -10.91625977 71.29516602 -12.85375977 69.92016602 C-14.96457931 66.69185378 -15.04722178 64.59527394 -15.06152344 60.74731445 C-15.06790329 59.5856073 -15.07428314 58.42390015 -15.08085632 57.22698975 C-15.08196915 55.96558167 -15.08308197 54.70417358 -15.08422852 53.40454102 C-15.08755692 52.1120343 -15.09088531 50.81952759 -15.09431458 49.487854 C-15.10030819 46.74734666 -15.10215437 44.00687086 -15.1015625 41.26635742 C-15.10146116 37.76490892 -15.11508248 34.2636645 -15.13233471 30.76226425 C-15.14617499 27.41385362 -15.14554493 24.06547986 -15.14672852 20.71704102 C-15.15750679 18.83707428 -15.15750679 18.83707428 -15.16850281 16.91912842 C-15.16542618 15.74481262 -15.16234955 14.57049683 -15.15917969 13.3605957 C-15.16131721 11.81743683 -15.16131721 11.81743683 -15.16349792 10.24310303 C-14.22028844 -1.00322785 -9.90387429 0.0590018 0 0 Z M0.08374023 15.29516602 C0.05485877 18.60764788 0.03698224 21.92009769 0.02124023 25.23266602 C0.01286133 26.17819336 0.00448242 27.1237207 -0.00415039 28.09790039 C-0.00737305 28.99702148 -0.0105957 29.89614258 -0.01391602 30.82250977 C-0.01915283 31.65516357 -0.02438965 32.48781738 -0.02978516 33.34570312 C-0.13269269 35.30033399 -0.13269269 35.30033399 1.08374023 36.29516602 C3.16417736 36.42152025 5.24950236 36.47098307 7.33374023 36.48266602 C8.47327148 36.4968457 9.61280273 36.51102539 10.78686523 36.52563477 C15.36031278 36.20592694 18.06609969 35.25779897 21.39624023 32.10766602 C23.55262324 28.51369433 23.60039974 26.42844202 23.08374023 22.29516602 C22.0115632 19.34667917 21.08673684 17.84648203 18.31420898 16.32250977 C11.96284266 13.71152743 6.76309028 14.14802002 0.08374023 15.29516602 Z " fill="#030303" transform="translate(239.916259765625,257.704833984375)"/>
<path d="M0 0 C6.33636329 5.96674209 10.82649176 15.41348947 15 23 C15 23.66 15 24.32 15 25 C15.66 25 16.32 25 17 25 C17.23074219 24.35160156 17.46148438 23.70320313 17.69921875 23.03515625 C19.43637186 18.98179899 21.59402376 15.2438694 23.8125 11.4375 C24.23853516 10.68275391 24.66457031 9.92800781 25.10351562 9.15039062 C27.55673472 4.93797961 29.73952251 1.60477973 34 -1 C37.46758942 -0.94021398 39.88826749 -0.60965977 42.9375 1.0625 C44.72265319 4.31777934 44.61955675 7.44180835 44 11 C42.30590285 14.86597891 40.12121834 18.37040761 37.875 21.9375 C37.30523437 22.87529297 36.73546875 23.81308594 36.1484375 24.77929688 C31.50987084 32.36440758 31.50987084 32.36440758 29.25341797 35.17724609 C23.93844187 41.94133062 24.24074356 48.38414565 24.375 56.75 C24.40055015 59.32801023 24.40905795 61.90626004 24.3984375 64.484375 C24.42429932 66.18158691 24.42429932 66.18158691 24.45068359 67.91308594 C23.8978209 71.69986592 22.67629936 73.31339085 20 76 C17.125 77.125 17.125 77.125 14 77 C10.93157928 75.44317229 9.759502 74.8357157 8 72 C7.4245759 67.89156661 7.55494311 63.85530254 7.69360352 59.71536255 C8.05038558 46.88646015 6.63180257 37.84795969 -1.60839844 27.76220703 C-4.04562145 24.67591304 -6.07276654 21.34901551 -8.125 18 C-8.51494141 17.41226807 -8.90488281 16.82453613 -9.30664062 16.21899414 C-12.23118431 11.54755311 -12.46960223 8.33536032 -12 3 C-9.01545873 -1.40575139 -4.76412187 -1.58804062 0 0 Z " fill="#030303" transform="translate(12,160)"/>
<path d="M0 0 C1.9375 1.625 1.9375 1.625 3 4 C2.65671453 9.31536226 1.34117829 12.68993047 -1.5625 17.1171875 C-2.27664063 18.21804688 -2.99078125 19.31890625 -3.7265625 20.453125 C-4.48421318 21.59385749 -5.24202757 22.73448127 -6 23.875 C-6.75892415 25.03833805 -7.51674749 26.20239502 -8.2734375 27.3671875 C-13.74984056 35.74984056 -13.74984056 35.74984056 -15 37 C-15.13418612 39.00109057 -15.20361996 41.006584 -15.24609375 43.01171875 C-15.27896484 44.24470703 -15.31183594 45.47769531 -15.34570312 46.74804688 C-15.40644411 49.35473962 -15.46378816 51.96151393 -15.51757812 54.56835938 C-15.55173828 55.80779297 -15.58589844 57.04722656 -15.62109375 58.32421875 C-15.65867798 60.0271106 -15.65867798 60.0271106 -15.69702148 61.7644043 C-16.01586997 65.16947999 -16.61848143 67.87070511 -18 71 C-21.3125 72.5625 -21.3125 72.5625 -25 73 C-27.44253321 71.88493049 -29.11356555 70.88643445 -31 69 C-31.0976051 66.9601291 -31.13205878 64.91718674 -31.140625 62.875 C-31.16962891 60.97814453 -31.16962891 60.97814453 -31.19921875 59.04296875 C-31.23733459 56.37809042 -31.25126974 53.71629127 -31.25390625 51.05078125 C-31.40956326 42.94842431 -32.24847138 37.58042454 -37 31 C-37.56831543 30.16178711 -38.13663086 29.32357422 -38.72216797 28.45996094 C-41.19679389 24.82434229 -43.70965522 21.21813956 -46.26757812 17.640625 C-49.78316934 12.53650738 -52.01183687 9.2602265 -51 3 C-50 1.0625 -50 1.0625 -48 0 C-43.13043478 -0.97391304 -43.13043478 -0.97391304 -40 0 C-37.07534118 2.59404521 -35.10967348 5.73046275 -33 9 C-32.28070313 10.06734375 -31.56140625 11.1346875 -30.8203125 12.234375 C-29.40110304 14.3455122 -27.99395988 16.46483354 -26.6015625 18.59375 C-25.2100527 20.85556435 -25.2100527 20.85556435 -24 22 C-23.5968457 21.37432129 -23.19369141 20.74864258 -22.77832031 20.10400391 C-20.9452639 17.27124212 -19.0978626 14.44812342 -17.25 11.625 C-16.61578125 10.64015625 -15.9815625 9.6553125 -15.328125 8.640625 C-14.709375 7.69960938 -14.090625 6.75859375 -13.453125 5.7890625 C-12.60476074 4.48509521 -12.60476074 4.48509521 -11.73925781 3.15478516 C-8.26980222 -1.14356059 -5.22509225 -1.55641046 0 0 Z " fill="#050505" transform="translate(453,257)"/>
<path d="M0 0 C0 3 0 3 -2.40625 5.69921875 C-3.4299968 6.70302243 -4.4616054 7.69885649 -5.5 8.6875 C-6.02464844 9.19861328 -6.54929687 9.70972656 -7.08984375 10.23632812 C-8.38660904 11.49772708 -9.69246117 12.74977212 -11 14 C-11.66 13.67 -12.32 13.34 -13 13 C-11.58791833 11.39179588 -10.17013964 9.78859292 -8.75 8.1875 C-7.96109375 7.29417969 -7.1721875 6.40085938 -6.359375 5.48046875 C-4.34120555 3.35871775 -2.40083295 1.65745577 0 0 Z " fill="#090909" transform="translate(268,141)"/>
</svg>
